<svg width="61" height="62" viewBox="0 0 61 62" fill="none" xmlns="http://www.w3.org/2000/svg">
<g clip-path="url(#clip0_1_142)">
<path d="M59.5265 31.5187L54.4645 30.0717C53.9672 29.9248 53.5167 29.6508 53.1575 29.2767C54.0406 27.0156 54.3971 24.583 54.1999 22.1635C54.0026 19.744 53.2569 17.4013 52.0192 15.313C50.7816 13.2248 49.0845 11.4459 47.0568 10.1113C45.0291 8.77673 42.724 7.92156 40.3165 7.6107C37.9928 7.30742 35.6308 7.52152 33.3995 8.2377C31.3501 8.88984 29.1489 8.88984 27.0995 8.2377C24.8779 7.52486 22.5265 7.3101 20.2125 7.6087C18.4238 7.838 16.688 8.37419 15.0815 9.1937C14.8222 8.9179 14.6184 8.59466 14.4815 8.2417L12.1885 2.1287C12.1173 1.93765 11.9894 1.77294 11.8219 1.65665C11.6544 1.54035 11.4554 1.47803 11.2515 1.47803C11.0476 1.47803 10.8486 1.54035 10.6811 1.65665C10.5137 1.77294 10.3857 1.93765 10.3145 2.1287L8.02252 8.2407C7.85728 8.67934 7.59185 9.07331 7.2474 9.3912C6.90294 9.70909 6.48898 9.94212 6.03852 10.0717L0.976519 11.5187C0.767996 11.5787 0.584649 11.7049 0.454146 11.8783C0.323644 12.0516 0.253067 12.2627 0.253067 12.4797C0.253067 12.6967 0.323644 12.9078 0.454146 13.0811C0.584649 13.2545 0.767996 13.3807 0.976519 13.4407L6.03852 14.8877C6.43821 15.0059 6.80888 15.2062 7.12689 15.4756C7.4449 15.7451 7.70326 16.0778 7.88552 16.4527C7.06124 18.114 6.53878 19.9086 6.34252 21.7527C5.90548 25.7909 7.02289 29.844 9.46752 33.0877C11.3234 35.6279 12.5401 38.5778 13.0145 41.6877L15.5895 56.7097C15.819 58.0451 16.5131 59.2564 17.5492 60.1296C18.5852 61.0028 19.8966 61.4817 21.2515 61.4817C22.6065 61.4817 23.9178 61.0028 24.9539 60.1296C25.9899 59.2564 26.684 58.0451 26.9135 56.7097L29.4005 42.2007C29.4356 42.0008 29.5401 41.8196 29.6955 41.689C29.851 41.5585 30.0475 41.4869 30.2505 41.4869C30.4535 41.4869 30.65 41.5585 30.8055 41.689C30.9609 41.8196 31.0654 42.0008 31.1005 42.2007L33.5875 56.7097C33.8176 58.0445 34.5119 59.255 35.5478 60.1276C36.5837 61.0002 37.8946 61.4788 39.249 61.4788C40.6035 61.4788 41.9144 61.0002 42.9503 60.1276C43.9861 59.255 44.6804 58.0445 44.9105 56.7097L47.4895 41.6797C47.5285 41.4507 47.5845 41.2307 47.6305 41.0047L48.3145 42.8307C48.3857 43.0217 48.5137 43.1865 48.6811 43.3027C48.8486 43.419 49.0476 43.4814 49.2515 43.4814C49.4554 43.4814 49.6544 43.419 49.8219 43.3027C49.9894 43.1865 50.1173 43.0217 50.1885 42.8307L52.4805 36.7187C52.6458 36.2801 52.9112 35.8861 53.2556 35.5682C53.6001 35.2503 54.0141 35.0173 54.4645 34.8877L59.5265 33.4407C59.735 33.3807 59.9184 33.2545 60.0489 33.0811C60.1794 32.9078 60.25 32.6967 60.25 32.4797C60.25 32.2627 60.1794 32.0516 60.0489 31.8783C59.9184 31.7049 59.735 31.5787 59.5265 31.5187ZM6.58752 12.9647L4.89152 12.4797L6.59152 11.9947C7.34258 11.7787 8.03282 11.3903 8.6073 10.8604C9.18177 10.3305 9.62459 9.67388 9.90052 8.9427L11.2515 5.3277L12.6065 8.9427C12.8824 9.67388 13.3253 10.3305 13.8997 10.8604C14.4742 11.3903 15.1645 11.7787 15.9155 11.9947L17.6155 12.4797L15.9155 12.9647C15.1645 13.1807 14.4742 13.5691 13.8997 14.099C13.3253 14.6289 12.8824 15.2855 12.6065 16.0167L11.2515 19.6317L9.89652 16.0167C9.62059 15.2855 9.17777 14.6289 8.60329 14.099C8.02882 13.5691 7.33858 13.1807 6.58752 12.9647ZM46.4075 37.7527C46.0217 38.9252 45.7242 40.1248 45.5175 41.3417L42.9405 56.3737C42.7905 57.2435 42.338 58.0322 41.6629 58.6008C40.9879 59.1694 40.1336 59.4812 39.251 59.4812C38.3684 59.4812 37.5142 59.1694 36.8391 58.6008C36.1641 58.0322 35.7116 57.2435 35.5615 56.3737L33.0745 41.8597C32.9606 41.1935 32.6147 40.5891 32.0981 40.1533C31.5815 39.7176 30.9274 39.4786 30.2515 39.4786C29.5757 39.4786 28.9216 39.7176 28.405 40.1533C27.8883 40.5891 27.5425 41.1935 27.4285 41.8597L24.9415 56.3687C24.7921 57.2391 24.3398 58.0286 23.6645 58.5978C22.9893 59.1669 22.1346 59.4791 21.2515 59.4791C20.3684 59.4791 19.5137 59.1669 18.8385 58.5978C18.1633 58.0286 17.711 57.2391 17.5615 56.3687L14.9865 41.3467C14.4581 37.9233 13.1124 34.6777 11.0635 31.8847C8.92519 29.0447 7.94836 25.497 8.33152 21.9627C8.43498 21.0105 8.63912 20.0719 8.94052 19.1627L10.3145 22.8287C10.3857 23.0197 10.5137 23.1845 10.6811 23.3007C10.8486 23.417 11.0476 23.4794 11.2515 23.4794C11.4554 23.4794 11.6544 23.417 11.8219 23.3007C11.9894 23.1845 12.1173 23.0197 12.1885 22.8287L14.4805 16.7167C14.6458 16.2781 14.9112 15.8841 15.2556 15.5662C15.6001 15.2483 16.0141 15.0153 16.4645 14.8857L21.5265 13.4387C21.735 13.3787 21.9184 13.2525 22.0489 13.0791C22.1794 12.9058 22.25 12.6947 22.25 12.4777C22.25 12.2607 22.1794 12.0496 22.0489 11.8763C21.9184 11.7029 21.735 11.5767 21.5265 11.5167L17.4265 10.3457C18.4055 9.97827 19.4236 9.72461 20.4605 9.5897C22.4855 9.32863 24.5432 9.51641 26.4875 10.1397C28.9336 10.9167 31.5604 10.9167 34.0065 10.1397C35.9597 9.51426 38.0269 9.32782 40.0605 9.5937C43.128 10.0085 45.9735 11.4217 48.1578 13.6149C50.342 15.8082 51.7434 18.6596 52.1455 21.7287C52.343 23.3703 52.2537 25.0337 51.8815 26.6447L50.1885 22.1287C50.1173 21.9377 49.9894 21.7729 49.8219 21.6566C49.6544 21.5404 49.4554 21.478 49.2515 21.478C49.0476 21.478 48.8486 21.5404 48.6811 21.6566C48.5137 21.7729 48.3857 21.9377 48.3145 22.1287L46.0225 28.2407C45.8573 28.6793 45.5919 29.0733 45.2474 29.3912C44.9029 29.7091 44.489 29.9421 44.0385 30.0717L38.9765 31.5187C38.768 31.5787 38.5847 31.7049 38.4541 31.8783C38.3236 32.0516 38.2531 32.2627 38.2531 32.4797C38.2531 32.6967 38.3236 32.9078 38.4541 33.0811C38.5847 33.2545 38.768 33.3807 38.9765 33.4407L44.0385 34.8877C44.489 35.0173 44.9029 35.2503 45.2474 35.5682C45.5919 35.8861 45.8573 36.2801 46.0225 36.7187L46.4115 37.7537L46.4075 37.7527ZM53.9155 32.9647C53.1645 33.1807 52.4742 33.5691 51.8997 34.099C51.3253 34.6289 50.8824 35.2855 50.6065 36.0167L49.2515 39.6317L47.8965 36.0167C47.6206 35.2855 47.1778 34.6289 46.6033 34.099C46.0288 33.5691 45.3386 33.1807 44.5875 32.9647L42.8915 32.4797L44.5915 31.9947C45.3426 31.7787 46.0328 31.3903 46.6073 30.8604C47.1818 30.3305 47.6246 29.6739 47.9005 28.9427L49.2515 25.3277L50.6065 28.9427C50.8824 29.6739 51.3253 30.3305 51.8997 30.8604C52.4742 31.3903 53.1645 31.7787 53.9155 31.9947L55.6155 32.4797L53.9155 32.9647Z" fill="#7F9B44"/>
</g>
<defs>
<clipPath id="clip0_1_142">
<rect width="60" height="61" fill="white" transform="translate(0.25 0.485046)"/>
</clipPath>
</defs>
</svg>
