<svg width="52" height="60" viewBox="0 0 52 60" fill="none" xmlns="http://www.w3.org/2000/svg">
<path d="M35 0.00212839C31.8822 -0.0432965 28.7979 0.638966 26 1.99295C23.2021 0.638966 20.1178 -0.0432965 17 0.00212839C6.673 0.00212839 0 6.17918 0 15.7398C0.0762012 21.821 2.36845 27.6734 6.46 32.2329L10.354 54.4339C10.5837 55.743 11.2854 56.9267 12.3304 57.7681C13.3754 58.6096 14.6938 59.0524 16.0438 59.0153C17.3938 58.9783 18.685 58.4639 19.6807 57.5664C20.6764 56.669 21.3098 55.4486 21.465 54.129L23.65 35.5103C23.7173 34.9438 23.9939 34.4212 24.4271 34.042C24.8603 33.6628 25.4201 33.4533 26 33.4533C26.5799 33.4533 27.1397 33.6628 27.5729 34.042C28.0061 34.4212 28.2827 34.9438 28.35 35.5103L30.535 54.1339C30.6902 55.4535 31.3236 56.6739 32.3193 57.5713C33.315 58.4688 34.6062 58.9832 35.9562 59.0202C37.3062 59.0573 38.6246 58.6145 39.6696 57.773C40.7146 56.9316 41.4163 55.7479 41.646 54.4388L45.54 32.2329C49.6316 27.6734 51.9238 21.821 52 15.7398C52 6.17918 45.327 0.00212839 35 0.00212839ZM25.512 3.96705C25.6611 4.04906 25.8291 4.09212 26 4.09212C26.1709 4.09212 26.3389 4.04906 26.488 3.96705C29.1073 2.60208 32.0364 1.91464 35 1.96934C35.332 1.96934 35.665 1.98508 36 2.00082C36 4.6095 34.9464 7.11134 33.0711 8.95596C31.1957 10.8006 28.6522 11.8369 26 11.8369C23.3478 11.8369 20.8043 10.8006 18.9289 8.95596C17.0536 7.11134 16 4.6095 16 2.00082C16.333 1.98508 16.666 1.96934 17 1.96934C19.9636 1.91464 22.8927 2.60208 25.512 3.96705ZM43.875 31.1057C43.7413 31.246 43.6522 31.4218 43.619 31.6113L39.675 54.1005C39.5268 54.943 39.0749 55.7047 38.4021 56.2461C37.7294 56.7876 36.8808 57.0724 36.0119 57.0485C35.143 57.0246 34.3119 56.6936 33.671 56.116C33.03 55.5385 32.6221 54.7531 32.522 53.9038L30.337 35.2792C30.2138 34.2328 29.7038 33.2674 28.9042 32.5668C28.1045 31.8661 27.0709 31.4789 26 31.4789C24.9291 31.4789 23.8955 31.8661 23.0958 32.5668C22.2962 33.2674 21.7862 34.2328 21.663 35.2792L19.479 53.9038C19.3796 54.7538 18.972 55.54 18.3309 56.1183C17.6898 56.6966 16.8582 57.028 15.9887 57.052C15.1192 57.0759 14.27 56.7906 13.5971 56.2485C12.9241 55.7063 12.4725 54.9437 12.325 54.1005L8.381 31.6113C8.34775 31.4218 8.25875 31.246 8.125 31.1057C4.24655 26.8899 2.06824 21.4251 2 15.7398C2 6.97885 7.77 3.09164 14.011 2.18869C14.0684 5.27894 15.3567 8.22356 17.5989 10.389C19.841 12.5545 22.8577 13.7677 26 13.7677C29.1423 13.7677 32.159 12.5545 34.4011 10.389C36.6433 8.22356 37.9316 5.27894 37.989 2.18869C44.23 3.09164 50 6.97885 50 15.7398C49.9318 21.4251 47.7535 26.8899 43.875 31.1057Z" fill="#B77A39"/>
</svg>
