<svg width="42" height="61" viewBox="0 0 42 61" fill="none" xmlns="http://www.w3.org/2000/svg">
<path fill-rule="evenodd" clip-rule="evenodd" d="M36.6603 24.1505H5.06555C4.59574 24.1505 4.24339 23.7988 4.24339 23.33C4.24339 22.9784 4.12593 22.6268 3.89103 22.1579C3.53867 21.5719 3.30377 20.9859 2.95141 20.3998C1.42453 17.704 0.25 15.8287 0.25 11.0232C0.25 6.21763 2.24669 3.17022 6.24008 1.29489C9.52875 -0.346027 12.5825 0.826054 15.4014 1.99814C16.4584 2.34976 17.3981 2.70138 18.3377 2.9358C21.7438 3.63905 23.858 2.9358 26.207 1.99814C27.2641 1.5293 28.4386 1.17768 29.848 0.826054C33.6065 0.00559762 36.8952 0.943263 39.0093 3.52184C40.4188 5.27996 41.3584 7.62413 41.4758 10.3199C41.7107 12.8985 41.2409 15.7115 40.1839 18.2901C39.2442 20.3998 38.5395 21.3375 38.0697 22.0407C37.7174 22.6268 37.5999 22.8612 37.4824 23.33C37.4824 23.7988 37.1301 24.1505 36.6603 24.1505ZM5.77027 22.5096H35.9556C36.1905 21.9235 36.4254 21.5719 36.7777 21.1031C37.1301 20.517 37.8348 19.5794 38.657 17.5868C40.6537 12.8985 40.3013 7.62413 37.7174 4.57671C35.9556 2.46697 33.3716 1.76372 30.2004 2.46697C28.9084 2.70138 27.8513 3.17022 26.7943 3.52184C24.3278 4.45951 21.9787 5.39717 17.9853 4.57671C16.9283 4.3423 15.8712 3.87347 14.8141 3.52184C12.2302 2.46697 9.52875 1.4121 7.06225 2.70138C7.06225 2.70138 7.06225 2.70138 6.94479 2.70138C3.42122 4.3423 1.89434 6.80367 1.89434 11.0232C1.89434 15.3599 2.95141 17.0008 4.36084 19.5794C4.7132 20.1654 4.9481 20.7514 5.30046 21.4547H5.41791C5.53536 21.8063 5.65282 22.1579 5.77027 22.5096Z" fill="#732525"/>
<path fill-rule="evenodd" clip-rule="evenodd" d="M32.5493 21.103C32.4319 21.103 32.3144 21.103 32.197 20.9858C31.8446 20.8685 31.6097 20.3997 31.8446 19.9309C32.197 19.1104 32.6668 18.5244 33.0191 17.8211C33.4889 17.2351 33.9587 16.5318 34.3111 15.7114C35.2507 13.25 35.7205 9.03053 33.8413 7.38961C33.254 6.92078 32.4319 6.92078 31.1399 7.1552C31.1399 7.1552 31.1399 7.1552 31.0224 7.1552C29.9654 7.2724 29.0257 7.74124 27.8512 8.21007C27.4989 8.32728 27.1465 8.44449 26.7941 8.6789C23.2706 9.85098 20.3343 9.96819 16.9281 9.14773C15.6362 8.79611 14.3442 8.32728 13.0522 7.85845C12.6998 7.74124 12.23 7.62403 11.8777 7.50682L11.7602 7.38961C11.173 7.1552 9.76353 6.68636 9.17627 6.92078C7.29703 7.97565 6.70976 8.79611 6.70976 11.0231C6.70976 14.1877 7.29703 15.1253 8.47155 17.2351C8.82391 17.8211 9.17627 18.4072 9.64608 19.2276C9.76353 19.5793 9.64608 20.0481 9.29372 20.2825C8.82391 20.5169 8.3541 20.3997 8.1192 19.9309C7.76684 19.2276 7.41448 18.6416 7.06212 18.0556C5.8876 15.9458 5.06543 14.5393 5.06543 11.0231C5.06543 8.21007 5.8876 6.80357 8.3541 5.51428C9.64608 4.81103 11.2904 5.51428 12.3475 5.86591H12.4649C12.8173 6.10032 13.2871 6.21753 13.6395 6.33474C14.9314 6.80357 16.106 7.2724 17.2805 7.50682C20.3343 8.21007 23.0357 8.09286 26.2069 7.03799C26.5592 6.92078 26.9116 6.80357 27.264 6.68636C28.4385 6.21753 29.613 5.7487 30.7875 5.51428C32.0795 5.27987 33.7238 5.16266 34.8984 6.21753C37.5998 8.44449 36.8951 13.4844 35.838 16.2974C35.838 16.4146 35.838 16.4146 35.838 16.4146C35.3682 17.3523 34.8984 18.0556 34.4286 18.7588C34.0762 19.3448 33.6064 19.9309 33.3715 20.6341C33.254 20.8685 32.9017 21.103 32.5493 21.103Z" fill="#732525"/>
<path fill-rule="evenodd" clip-rule="evenodd" d="M27.499 32.7067H14.2269C13.992 32.7067 13.7571 32.5895 13.6396 32.4723L11.2906 29.7765C11.1731 29.5421 11.0557 29.4249 11.0557 29.1904V23.33C11.0557 22.8612 11.408 22.5096 11.8778 22.5096H29.9655C30.4353 22.5096 30.7877 22.8612 30.7877 23.33V29.1904C30.7877 29.4249 30.7877 29.5421 30.6702 29.7765L28.2037 32.4723C27.9688 32.5895 27.7339 32.7067 27.499 32.7067ZM14.6967 31.0658H27.1467L29.1434 28.8388V24.1505H12.7V28.8388L14.6967 31.0658Z" fill="#732525"/>
<path fill-rule="evenodd" clip-rule="evenodd" d="M20.5694 60.4849C20.3345 60.4849 20.0996 60.3677 19.9821 60.1333L16.4585 55.0933C16.3411 54.9761 16.2236 54.7417 16.2236 54.6245V53.4524C16.2236 52.9836 16.576 52.632 17.0458 52.632C17.5156 52.632 17.868 52.9836 17.868 53.4524V54.3901L20.6868 58.258L23.858 54.2729V51.3427C23.858 50.8738 24.2104 50.5222 24.6802 50.5222C25.15 50.5222 25.5024 50.8738 25.5024 51.3427V54.6245C25.5024 54.8589 25.5024 54.9761 25.3849 55.0933L21.2741 60.1333C21.0392 60.3677 20.8043 60.4849 20.5694 60.4849ZM17.0458 51.6943C16.576 51.6943 16.2236 51.3427 16.2236 50.8738V48.9985C16.2236 48.5297 16.576 48.1781 17.0458 48.1781C17.5156 48.1781 17.868 48.5297 17.868 48.9985V50.8738C17.868 51.3427 17.5156 51.6943 17.0458 51.6943ZM24.6802 49.5846C24.2104 49.5846 23.858 49.2329 23.858 48.7641V46.8888C23.858 46.4199 24.2104 46.0683 24.6802 46.0683C25.15 46.0683 25.5024 46.4199 25.5024 46.8888V48.7641C25.5024 49.2329 25.15 49.5846 24.6802 49.5846ZM17.0458 47.2404C16.576 47.2404 16.2236 46.8888 16.2236 46.4199V44.4274C16.2236 43.9586 16.576 43.6069 17.0458 43.6069C17.5156 43.6069 17.868 43.9586 17.868 44.4274V46.4199C17.868 46.8888 17.5156 47.2404 17.0458 47.2404ZM24.6802 45.1306C24.2104 45.1306 23.858 44.779 23.858 44.3102V42.4349C23.858 41.966 24.2104 41.6144 24.6802 41.6144C25.15 41.6144 25.5024 41.966 25.5024 42.4349V44.3102C25.5024 44.779 25.15 45.1306 24.6802 45.1306ZM17.0458 42.7865C16.576 42.7865 16.2236 42.4349 16.2236 41.966V39.9735C16.2236 39.5047 16.576 39.153 17.0458 39.153C17.5156 39.153 17.868 39.5047 17.868 39.9735V41.966C17.868 42.4349 17.5156 42.7865 17.0458 42.7865ZM24.6802 40.6767C24.2104 40.6767 23.858 40.3251 23.858 39.8563V37.981C23.858 37.5121 24.2104 37.1605 24.6802 37.1605C25.15 37.1605 25.5024 37.5121 25.5024 37.981V39.8563C25.5024 40.3251 25.15 40.6767 24.6802 40.6767ZM17.0458 38.2154C16.576 38.2154 16.2236 37.8637 16.2236 37.3949V31.8861C16.2236 31.4173 16.576 31.0657 17.0458 31.0657H24.6802C25.15 31.0657 25.5024 31.4173 25.5024 31.8861V35.4024C25.5024 35.8712 25.15 36.2228 24.6802 36.2228C24.2104 36.2228 23.858 35.8712 23.858 35.4024V32.7066H17.868V37.3949C17.868 37.8637 17.5156 38.2154 17.0458 38.2154Z" fill="#732525"/>
<path fill-rule="evenodd" clip-rule="evenodd" d="M15.0493 41.2628C14.2271 41.2628 13.5224 40.794 13.17 39.8563C12.9351 39.2703 13.0526 38.6842 13.2875 38.2154C13.6398 37.7466 13.9922 37.3949 14.5795 37.2777L26.2073 34.1131C26.7945 33.9959 27.2643 34.1131 27.7341 34.3475C28.204 34.6992 28.5563 35.0508 28.6738 35.6368C28.7912 36.1057 28.7912 36.5745 28.5563 37.0433C28.3214 37.5122 27.8516 37.981 27.2643 38.0982L15.6365 41.2628C15.5191 41.2628 15.2842 41.2628 15.0493 41.2628ZM14.6969 39.2703C14.6969 39.3875 14.9318 39.7391 15.1667 39.6219C15.1667 39.6219 15.1667 39.6219 15.2842 39.6219L26.912 36.4573C27.0294 36.4573 27.0294 36.3401 27.1469 36.3401C27.1469 36.2229 27.1469 36.2229 27.1469 36.2229C27.1469 36.1057 27.1469 36.1057 27.1469 35.9885C27.0294 35.9885 27.0294 35.8712 26.912 35.8712C26.7945 35.754 26.6771 35.754 26.5596 35.754L14.9318 38.9187C14.8144 38.9187 14.8144 38.9187 14.6969 39.0359C14.6969 39.1531 14.6969 39.1531 14.6969 39.2703Z" fill="#732525"/>
<path fill-rule="evenodd" clip-rule="evenodd" d="M15.0493 45.7167C14.2271 45.7167 13.5224 45.2478 13.17 44.4274C13.17 44.3102 13.17 44.3102 13.17 44.3102C12.9351 43.7241 13.0526 43.1381 13.2875 42.6693C13.6398 42.2004 13.9922 41.8488 14.5795 41.7316L26.2073 38.567C26.7945 38.4498 27.2643 38.567 27.7341 38.8014C28.204 39.153 28.5563 39.5046 28.6738 40.0907C29.0261 41.1456 28.3214 42.2004 27.3818 42.5521C27.3818 42.6693 27.2643 42.6693 27.2643 42.6693L15.6365 45.7167C15.5191 45.7167 15.2842 45.7167 15.0493 45.7167ZM14.6969 43.7241C14.6969 43.8413 14.9318 44.193 15.1667 44.0758C15.1667 44.0758 15.1667 44.0758 15.2842 44.0758L26.7945 41.0283C27.0294 40.9111 27.1469 40.6767 27.1469 40.5595C27.1469 40.5595 27.1469 40.4423 27.0294 40.4423C27.0294 40.4423 27.0294 40.3251 26.912 40.2079C26.7945 40.2079 26.6771 40.2079 26.5596 40.2079L14.9318 43.3725C14.8144 43.3725 14.8144 43.3725 14.6969 43.4897C14.6969 43.6069 14.6969 43.6069 14.6969 43.7241Z" fill="#732525"/>
<path fill-rule="evenodd" clip-rule="evenodd" d="M15.0493 50.288C14.1097 50.288 13.405 49.7019 13.1701 48.7643C12.8177 47.7094 13.2876 46.6545 14.4621 46.1857L26.0899 43.0211C26.2073 43.0211 26.2073 43.0211 26.2073 43.0211C26.7946 42.9039 27.2644 43.0211 27.7342 43.2555C28.204 43.4899 28.5564 43.9587 28.6738 44.5448C29.0262 45.5997 28.4389 46.6545 27.3819 47.0062C27.3819 47.0062 27.2644 47.0062 27.2644 47.1234L15.6366 50.1708C15.4017 50.1708 15.2843 50.288 15.0493 50.288ZM15.0493 47.8266C14.9319 47.8266 14.5795 47.9438 14.697 48.2954C14.8144 48.6471 15.0493 48.6471 15.1668 48.5299L26.7946 45.4824C26.912 45.4824 27.147 45.248 27.147 45.0136C27.0295 45.0136 27.0295 44.8964 27.0295 44.8964C27.0295 44.8964 27.0295 44.7792 26.912 44.662C26.7946 44.662 26.6771 44.662 26.5597 44.662L15.0493 47.8266Z" fill="#732525"/>
<path fill-rule="evenodd" clip-rule="evenodd" d="M15.1661 54.7418C14.2265 54.7418 13.4044 54.1558 13.1694 53.2181C12.6996 52.1632 13.5218 51.1084 14.4614 50.6395C14.4614 50.6395 14.4614 50.6395 14.5789 50.6395L26.0892 47.5921C26.6765 47.4749 27.2638 47.4749 27.7336 47.8265C28.2034 48.061 28.5557 48.5298 28.6732 48.9986C28.9081 49.5847 28.7906 50.1707 28.5557 50.6395C28.2034 51.1084 27.7336 51.46 27.2638 51.5772L15.636 54.7418C15.401 54.7418 15.2836 54.7418 15.1661 54.7418ZM15.0487 52.1632C14.8138 52.2805 14.6963 52.6321 14.6963 52.6321V52.7493C14.8138 52.9837 14.9312 53.1009 15.2836 53.1009L26.7939 49.9363C26.9114 49.9363 26.9114 49.9363 26.9114 49.9363C26.9114 49.9363 27.0288 49.9363 27.0288 49.8191C27.1463 49.7019 27.1463 49.5847 27.1463 49.4675L27.0288 49.3503C27.0288 49.3503 27.0288 49.233 26.9114 49.233C26.9114 49.233 26.7939 49.1158 26.559 49.233L15.0487 52.1632Z" fill="#732525"/>
</svg>
