<svg width="64" height="61" viewBox="0 0 64 61" fill="none" xmlns="http://www.w3.org/2000/svg">
<g clip-path="url(#clip0_301_811)">
<path d="M60.404 21.6222C62.2773 15.1799 60.1784 8.46669 54.8304 4.28739C49.1719 -0.133577 41.6887 -0.372813 35.7632 3.66733C34.7077 4.38504 33.6498 5.14913 32.5821 5.92054L32.0168 6.32822C30.7744 5.4323 29.5345 4.53151 28.2679 3.66733C22.34 -0.372813 14.8568 -0.131136 9.20067 4.28739C3.85516 8.46669 1.75869 15.1799 3.62949 21.6222C1.85332 21.8639 0.472656 23.3847 0.472656 25.2424C0.472656 27.2662 2.10567 28.9115 4.11236 28.9115H6.13119C6.13119 28.9115 15.3518 54.9394 15.3639 54.9687C17.5914 61.2571 26.8387 60.6859 28.3116 54.2021L31.9027 37.4093C31.9027 37.4093 35.7196 54.1875 35.7244 54.2095C37.2021 60.6981 46.4591 61.2229 48.6696 54.9711L57.9024 28.914H59.9212C61.9279 28.914 63.5609 27.2686 63.5609 25.2449C63.5609 23.3847 62.1802 21.8639 60.404 21.6222ZM10.6881 6.2208C15.4974 2.46139 21.8644 2.25389 26.9091 5.69351C32.9679 9.82642 38.8303 15.0579 46.4567 15.656C47.1094 15.7072 47.7063 15.1995 47.7549 14.5257C47.8034 13.8519 47.3011 13.266 46.6338 13.2172C42.0527 12.8828 38.0004 10.5075 34.1254 7.81733C35.1324 7.08986 36.1296 6.37216 37.1245 5.69107C42.1667 2.25389 48.5338 2.46139 53.3455 6.21836C57.1041 9.1551 60.2439 14.7234 57.9096 21.5709H44.1491V17.9018C44.1491 17.2256 43.6056 16.6788 42.9359 16.6788H21.0977C20.4279 16.6788 19.8844 17.2256 19.8844 17.9018V21.5709H6.12391C3.79207 14.7259 6.92949 9.15754 10.6881 6.2208ZM41.7227 24.0194H39.2962V21.5734C39.2962 20.8972 38.7527 20.3503 38.083 20.3503H34.368C33.6983 20.3503 33.1548 20.8972 33.1548 21.5734V24.0194H30.8788V21.5734C30.8788 20.8972 30.3352 20.3503 29.6655 20.3503H25.9506C25.2809 20.3503 24.7374 20.8972 24.7374 21.5734V24.0194H22.3109V19.1297H41.7227V24.0194ZM36.8697 22.7964V27.6861H35.5813V22.7964H36.8697ZM28.4523 22.7964V27.6861H27.1638V22.7964H28.4523ZM22.3109 26.463H24.7374V28.9091C24.7374 29.5853 25.2809 30.1321 25.9506 30.1321H29.6655C30.3352 30.1321 30.8788 29.5853 30.8788 28.9091V26.463H33.1548V28.9091C33.1548 29.5853 33.6983 30.1321 34.368 30.1321H38.083C38.7527 30.1321 39.2962 29.5853 39.2962 28.9091V26.4655H41.7227V31.3552H22.3109V26.463ZM2.89913 25.2424C2.89913 24.5687 3.44266 24.0194 4.11236 24.0194H19.8844V26.4655H4.11236C3.44266 26.463 2.89913 25.9162 2.89913 25.2424ZM46.3863 54.146C45.5832 56.409 43.6056 57.1145 42.0502 57.0241C40.4827 56.9314 38.6192 55.9988 38.0878 53.6602L34.2661 36.86C34.0186 35.7786 33.116 35.0535 32.0168 35.0535C30.9152 35.0535 30.0125 35.781 29.7674 36.8624L25.9457 53.6529C25.4095 56.0062 23.546 56.9411 21.9809 57.0339C20.4255 57.1462 18.4528 56.4187 17.6472 54.146L8.70567 28.9091H19.8844V32.5782C19.8844 33.2544 20.4279 33.8012 21.0977 33.8012H42.9359C43.6056 33.8012 44.1491 33.2544 44.1491 32.5782V28.9091H55.3279L46.3863 54.146ZM59.9212 26.463H44.1491V24.017H59.9212C60.5909 24.017 61.1344 24.5662 61.1344 25.24C61.1344 25.9162 60.5909 26.463 59.9212 26.463Z" fill="#989063"/>
</g>
<defs>
<clipPath id="clip0_301_811">
<rect width="63.5294" height="60" fill="white" transform="translate(0.25 0.485046)"/>
</clipPath>
</defs>
</svg>
