<svg width="198" height="139" viewBox="0 0 198 139" fill="none" xmlns="http://www.w3.org/2000/svg">
<g clip-path="url(#clip0_28_241)">
<path d="M0 114.675V78.6944H12.6952C16.4809 78.6944 19.8015 79.4532 22.6571 80.9707C25.5127 82.4883 27.7237 84.6014 29.3147 87.302C30.8975 90.0107 31.6889 93.1355 31.6889 96.6846C31.6889 99.3607 31.232 101.8 30.3264 104.011C29.4208 106.222 28.1317 108.115 26.4591 109.706C24.7866 111.289 22.7876 112.513 20.4542 113.378C18.1208 114.242 15.5344 114.675 12.6952 114.675H0ZM9.45609 105.855H12.3362C13.7395 105.855 15.0204 105.668 16.1627 105.292C17.3131 104.917 18.3003 104.338 19.1406 103.554C19.981 102.771 20.6255 101.817 21.0824 100.674C21.5393 99.5321 21.7678 98.2022 21.7678 96.6765C21.7678 94.6531 21.368 92.956 20.5766 91.5854C19.777 90.2147 18.6756 89.1867 17.2641 88.5013C15.8526 87.816 14.2127 87.4733 12.3443 87.4733H9.46425V105.847L9.45609 105.855Z" fill="#D1E5AB"/>
<path d="M35.9316 114.675V78.6944H61.9175V86.8696H45.3959V92.5481H59.0946V100.054H45.3959V106.402H62.1297V114.675H35.9398H35.9316Z" fill="#D1E5AB"/>
<path d="M67.2534 114.675V78.6944H76.6606L90.3592 99.3852V78.6944H99.5053V114.675H90.0982L76.3995 93.674V114.675H67.2534Z" fill="#D1E5AB"/>
<path d="M112.151 114.675V87.302H102.72V78.6944H131.096V87.302H121.665V114.675H112.16H112.151Z" fill="#D1E5AB"/>
<path d="M150.221 115.442C147.43 115.442 144.86 114.969 142.511 114.014C140.161 113.059 138.121 111.738 136.392 110.041C134.662 108.344 133.316 106.353 132.369 104.077C131.415 101.8 130.941 99.3281 130.941 96.6765C130.941 94.0249 131.415 91.5283 132.369 89.2519C133.316 86.9756 134.662 84.9849 136.392 83.2878C138.121 81.5908 140.161 80.2691 142.511 79.3308C144.86 78.3925 147.43 77.9193 150.221 77.9193C153.011 77.9193 155.581 78.4007 157.915 79.3553C160.248 80.3098 162.296 81.6479 164.034 83.3613C165.771 85.0746 167.126 87.0654 168.08 89.3335C169.043 91.6017 169.516 94.0493 169.516 96.6683C169.516 99.2873 169.035 101.792 168.08 104.068C167.118 106.345 165.771 108.335 164.034 110.032C162.296 111.73 160.256 113.051 157.915 114.006C155.573 114.96 153.011 115.434 150.221 115.434V115.442ZM150.221 106.581C151.591 106.581 152.848 106.353 153.982 105.888C155.116 105.423 156.111 104.762 156.952 103.897C157.792 103.032 158.445 101.988 158.902 100.772C159.367 99.5565 159.595 98.194 159.595 96.6846C159.595 94.6612 159.195 92.9071 158.388 91.4303C157.58 89.9454 156.47 88.8032 155.059 87.9955C153.647 87.1878 152.032 86.788 150.213 86.788C148.858 86.788 147.61 87.0164 146.46 87.4815C145.309 87.9465 144.322 88.6074 143.482 89.4641C142.641 90.3207 141.997 91.3651 141.54 92.5889C141.083 93.8127 140.863 95.1834 140.863 96.6846C140.863 98.708 141.262 100.462 142.07 101.939C142.878 103.424 143.979 104.566 145.383 105.374C146.786 106.182 148.401 106.581 150.213 106.581H150.221Z" fill="#D1E5AB"/>
<path d="M173.759 114.675V78.6944H183.215V106.043H197.248V114.675H173.759Z" fill="#D1E5AB"/>
<path d="M89.7717 138.417C89.0537 138.417 88.3684 138.303 87.7157 138.074C87.063 137.846 86.5245 137.552 86.1084 137.185L86.7856 136.027C87.1772 136.386 87.6341 136.663 88.1644 136.867C88.6947 137.063 89.2332 137.169 89.7799 137.169C90.4979 137.169 91.0608 137.03 91.4688 136.761C91.8767 136.492 92.0807 136.108 92.0807 135.619C92.0807 135.154 91.9093 134.811 91.5585 134.582C91.2158 134.354 90.5713 134.126 89.6412 133.889C88.5071 133.612 87.6831 133.261 87.1772 132.828C86.6714 132.396 86.4184 131.8 86.4184 131.033C86.4184 130.495 86.5653 130.022 86.8672 129.597C87.1609 129.173 87.577 128.847 88.0992 128.602C88.6213 128.357 89.2332 128.243 89.9186 128.243C90.6039 128.243 91.2158 128.341 91.8033 128.537C92.3907 128.733 92.8966 129.018 93.3371 129.385L92.7007 130.56C92.4805 130.34 92.2194 130.144 91.9175 129.989C91.6156 129.826 91.2974 129.703 90.9548 129.614C90.6121 129.524 90.2612 129.483 89.9023 129.483C89.2822 129.483 88.7763 129.614 88.3847 129.883C87.9931 130.144 87.7973 130.511 87.7973 130.976C87.7973 131.441 87.9931 131.808 88.3766 132.037C88.7682 132.265 89.3883 132.477 90.2449 132.681C91.3872 132.951 92.2112 133.302 92.7171 133.734C93.2229 134.166 93.4758 134.77 93.4758 135.529C93.4758 136.116 93.3208 136.622 93.0189 137.055C92.7089 137.487 92.2846 137.822 91.7298 138.066C91.175 138.311 90.5223 138.425 89.7799 138.425L89.7717 138.417Z" fill="#D1E5AB"/>
<path d="M96.4292 138.123V128.627H97.8815V130.03C98.1589 129.622 98.4771 129.296 98.8197 129.051C99.1624 128.806 99.5296 128.618 99.913 128.504C100.296 128.39 100.688 128.333 101.08 128.333C101.912 128.333 102.589 128.512 103.111 128.871C103.633 129.23 104.001 129.671 104.229 130.201C104.768 129.451 105.355 128.953 105.983 128.7C106.611 128.455 107.215 128.325 107.803 128.325C108.651 128.325 109.336 128.496 109.859 128.839C110.381 129.181 110.764 129.622 111.001 130.152C111.237 130.683 111.36 131.221 111.36 131.776V138.123H109.908V132.208C109.908 131.466 109.704 130.862 109.288 130.389C108.871 129.924 108.26 129.687 107.452 129.687C106.921 129.687 106.448 129.81 106.016 130.046C105.592 130.283 105.249 130.617 104.996 131.042C104.743 131.466 104.621 131.955 104.621 132.518V138.115H103.168V132.2C103.168 131.458 102.964 130.854 102.548 130.381C102.132 129.916 101.52 129.679 100.713 129.679C100.182 129.679 99.7009 129.801 99.2766 130.038C98.8524 130.275 98.5015 130.609 98.2568 131.033C98.0039 131.458 97.8815 131.947 97.8815 132.51V138.107H96.4292V138.123Z" fill="#D1E5AB"/>
<path d="M115.488 126.726C115.187 126.726 114.934 126.628 114.722 126.424C114.509 126.22 114.403 125.967 114.403 125.673C114.403 125.379 114.509 125.11 114.722 124.906C114.934 124.702 115.187 124.604 115.488 124.604C115.79 124.604 116.043 124.702 116.255 124.906C116.468 125.11 116.574 125.363 116.574 125.673C116.574 125.983 116.468 126.228 116.255 126.424C116.043 126.619 115.79 126.726 115.488 126.726ZM114.762 138.123V128.627H116.215V138.123H114.762Z" fill="#D1E5AB"/>
<path d="M119.731 138.123V124.025H121.183V138.123H119.731Z" fill="#D1E5AB"/>
<path d="M128.91 138.417C127.914 138.417 127.033 138.205 126.266 137.789C125.499 137.373 124.904 136.785 124.471 136.035C124.039 135.284 123.827 134.403 123.827 133.408C123.827 132.681 123.949 132.012 124.194 131.392C124.439 130.772 124.781 130.234 125.23 129.777C125.679 129.32 126.201 128.969 126.796 128.716C127.392 128.463 128.045 128.341 128.746 128.341C129.497 128.341 130.166 128.471 130.754 128.741C131.341 129.01 131.83 129.377 132.23 129.858C132.622 130.332 132.907 130.895 133.079 131.539C133.25 132.184 133.299 132.877 133.209 133.62H125.32C125.287 134.321 125.418 134.941 125.711 135.464C126.005 135.986 126.437 136.402 127 136.696C127.572 136.989 128.241 137.136 129.024 137.136C129.538 137.136 130.052 137.046 130.558 136.875C131.064 136.696 131.504 136.451 131.871 136.124L132.573 137.25C132.255 137.511 131.888 137.732 131.471 137.911C131.055 138.091 130.631 138.221 130.191 138.311C129.75 138.393 129.318 138.442 128.893 138.442L128.91 138.417ZM125.401 132.404H131.733C131.7 131.523 131.431 130.838 130.925 130.34C130.419 129.842 129.693 129.597 128.738 129.597C127.784 129.597 127.058 129.842 126.454 130.34C125.85 130.838 125.499 131.523 125.401 132.404Z" fill="#D1E5AB"/>
<path d="M144.142 138.417C143.424 138.417 142.739 138.303 142.086 138.074C141.434 137.846 140.895 137.552 140.479 137.185L141.156 136.027C141.548 136.386 142.005 136.663 142.535 136.867C143.065 137.063 143.604 137.169 144.15 137.169C144.868 137.169 145.431 137.03 145.839 136.761C146.247 136.492 146.451 136.108 146.451 135.619C146.451 135.154 146.28 134.811 145.929 134.582C145.586 134.354 144.942 134.126 144.012 133.889C142.878 133.612 142.054 133.261 141.548 132.828C141.042 132.396 140.789 131.8 140.789 131.033C140.789 130.495 140.936 130.022 141.238 129.597C141.532 129.173 141.948 128.847 142.47 128.602C142.992 128.357 143.604 128.243 144.289 128.243C144.975 128.243 145.586 128.341 146.174 128.537C146.761 128.733 147.267 129.018 147.708 129.385L147.071 130.56C146.851 130.34 146.59 130.144 146.288 129.989C145.986 129.826 145.668 129.703 145.325 129.614C144.983 129.524 144.632 129.483 144.273 129.483C143.653 129.483 143.147 129.614 142.755 129.883C142.364 130.144 142.168 130.511 142.168 130.976C142.168 131.441 142.364 131.808 142.747 132.037C143.139 132.265 143.759 132.477 144.616 132.681C145.758 132.951 146.582 133.302 147.088 133.734C147.594 134.166 147.846 134.77 147.846 135.529C147.846 136.116 147.691 136.622 147.39 137.055C147.08 137.487 146.655 137.822 146.1 138.066C145.546 138.311 144.893 138.425 144.15 138.425L144.142 138.417Z" fill="#D1E5AB"/>
<path d="M149.576 129.899V128.627H152.105V129.899H149.576ZM154.667 138.417C153.827 138.417 153.142 138.172 152.619 137.675C152.097 137.177 151.836 136.402 151.836 135.341V125.812H153.288V128.618H156.209V129.891H153.288V134.925C153.288 135.7 153.427 136.247 153.696 136.565C153.966 136.883 154.374 137.038 154.912 137.038C155.157 137.038 155.377 137.014 155.581 136.957C155.785 136.9 155.965 136.842 156.128 136.761L156.487 137.977C156.217 138.107 155.932 138.213 155.614 138.287C155.304 138.368 154.985 138.401 154.667 138.401V138.417Z" fill="#D1E5AB"/>
<path d="M162.875 138.417C162.043 138.417 161.349 138.246 160.803 137.895C160.256 137.544 159.84 137.112 159.571 136.573C159.293 136.035 159.163 135.48 159.163 134.909V128.627H160.615V134.55C160.615 135.292 160.843 135.896 161.308 136.353C161.773 136.81 162.402 137.046 163.201 137.046C163.723 137.046 164.197 136.924 164.613 136.687C165.037 136.451 165.371 136.116 165.624 135.684C165.877 135.251 166 134.754 166 134.183V128.618H167.452V138.115H166.073V136.908C165.657 137.422 165.176 137.805 164.637 138.042C164.099 138.278 163.519 138.401 162.891 138.401L162.875 138.417Z" fill="#D1E5AB"/>
<path d="M174.868 138.417C173.922 138.417 173.09 138.189 172.372 137.74C171.654 137.291 171.091 136.679 170.691 135.921C170.291 135.162 170.087 134.305 170.087 133.375C170.087 132.681 170.202 132.029 170.438 131.425C170.675 130.821 171.001 130.275 171.425 129.818C171.85 129.353 172.356 128.994 172.943 128.733C173.53 128.471 174.183 128.341 174.893 128.341C175.856 128.341 176.663 128.537 177.332 128.92C178.001 129.312 178.548 129.826 178.964 130.462L178.703 130.789V124.033H180.155V138.132H178.777V135.969L179.005 136.304C178.605 136.908 178.083 137.405 177.439 137.813C176.794 138.221 175.945 138.425 174.893 138.425L174.868 138.417ZM175.13 137.079C175.823 137.079 176.435 136.924 176.973 136.622C177.512 136.32 177.928 135.888 178.23 135.341C178.532 134.786 178.687 134.134 178.687 133.375C178.687 132.616 178.532 131.963 178.23 131.409C177.928 130.854 177.504 130.43 176.973 130.128C176.435 129.826 175.823 129.679 175.13 129.679C174.436 129.679 173.824 129.826 173.294 130.128C172.763 130.43 172.339 130.854 172.037 131.409C171.735 131.963 171.58 132.616 171.58 133.375C171.58 134.134 171.735 134.786 172.037 135.341C172.347 135.896 172.763 136.32 173.294 136.622C173.824 136.924 174.436 137.079 175.13 137.079Z" fill="#D1E5AB"/>
<path d="M184.365 126.726C184.064 126.726 183.811 126.628 183.598 126.424C183.386 126.22 183.28 125.967 183.28 125.673C183.28 125.379 183.386 125.11 183.598 124.906C183.811 124.702 184.064 124.604 184.365 124.604C184.667 124.604 184.92 124.702 185.132 124.906C185.344 125.11 185.451 125.363 185.451 125.673C185.451 125.983 185.344 126.228 185.132 126.424C184.92 126.619 184.667 126.726 184.365 126.726ZM183.639 138.123V128.627H185.092V138.123H183.639Z" fill="#D1E5AB"/>
<path d="M192.793 138.417C191.831 138.417 190.966 138.189 190.199 137.732C189.432 137.275 188.836 136.663 188.396 135.896C187.955 135.129 187.743 134.289 187.743 133.375C187.743 132.69 187.866 132.045 188.118 131.433C188.371 130.829 188.722 130.291 189.179 129.826C189.636 129.361 190.174 128.994 190.786 128.733C191.398 128.471 192.067 128.333 192.793 128.333C193.764 128.333 194.629 128.561 195.396 129.018C196.155 129.475 196.759 130.087 197.191 130.854C197.632 131.621 197.844 132.461 197.844 133.375C197.844 134.052 197.721 134.697 197.468 135.309C197.216 135.921 196.865 136.459 196.416 136.924C195.967 137.389 195.429 137.756 194.817 138.017C194.205 138.278 193.528 138.417 192.793 138.417ZM192.793 137.079C193.487 137.079 194.099 136.924 194.637 136.622C195.176 136.32 195.592 135.888 195.894 135.341C196.196 134.786 196.351 134.134 196.351 133.375C196.351 132.616 196.196 131.963 195.894 131.409C195.592 130.854 195.168 130.43 194.637 130.128C194.099 129.826 193.487 129.679 192.793 129.679C192.1 129.679 191.488 129.826 190.95 130.128C190.411 130.43 189.995 130.854 189.693 131.409C189.391 131.963 189.236 132.616 189.236 133.375C189.236 134.134 189.391 134.786 189.693 135.341C190.003 135.896 190.419 136.32 190.95 136.622C191.48 136.924 192.092 137.079 192.785 137.079H192.793Z" fill="#D1E5AB"/>
<path d="M123.215 18.2864C121.118 14.5415 118.14 11.3269 114.289 8.63447C110.438 5.95021 105.714 3.83708 100.109 2.29505C94.5118 0.761193 88.2051 -0.0057373 81.2048 -0.0057373C75.9831 -0.0057373 71.7568 4.10632 71.7568 9.17296V37.2067C81.7106 35.0773 91.1912 31.055 99.4398 25.0337C97.9385 23.3449 96.0865 21.9986 93.9489 21.0196C93.1248 20.6198 92.2763 20.3179 91.4278 19.9589C93.1983 19.0044 95.3032 18.8493 97.2777 19.3062C103.062 20.6116 106.832 27.3508 104.645 32.7194C104.262 33.4863 104.376 33.5352 104.033 32.7194L103.764 32.0911C102.769 29.823 101.528 27.5467 99.9783 25.6538C94.5282 34.2695 85.5371 40.4295 75.926 44.1825C74.5553 44.7129 73.1683 45.1861 71.765 45.6185V60.7858H81.2129C88.3519 60.7858 94.724 60.0188 100.329 58.4768C105.926 56.943 110.658 54.8298 114.509 52.1374C118.36 49.4531 121.297 46.2549 123.329 42.5589C125.36 38.863 126.372 34.808 126.372 30.3859C126.372 25.9638 125.32 22.0313 123.223 18.2864H123.215Z" fill="#D1E5AB"/>
</g>
<defs>
<clipPath id="clip0_28_241">
<rect width="197.844" height="138.423" fill="white" transform="translate(0 -0.0057373)"/>
</clipPath>
</defs>
</svg>
