<svg width="168" height="118" viewBox="0 0 168 118" fill="none" xmlns="http://www.w3.org/2000/svg">
<g clip-path="url(#clip0_369_2781)">
<path d="M0.203125 97.7475V67.3626H10.924C14.1209 67.3626 16.9252 68.0034 19.3367 69.2849C21.7482 70.5665 23.6153 72.351 24.9589 74.6316C26.2956 76.919 26.9639 79.5579 26.9639 82.5551C26.9639 84.815 26.578 86.8751 25.8133 88.7423C25.0485 90.6095 23.9598 92.208 22.5474 93.5515C21.1349 94.8882 19.4469 95.9217 17.4764 96.652C15.5058 97.3823 13.3217 97.7475 10.924 97.7475H0.203125ZM8.18864 90.2994H10.6208C11.8059 90.2994 12.8876 90.141 13.8522 89.824C14.8237 89.5071 15.6574 89.0179 16.3671 88.3564C17.0767 87.695 17.621 86.8889 18.0069 85.9243C18.3927 84.9597 18.5856 83.8366 18.5856 82.5482C18.5856 80.8395 18.248 79.4063 17.5797 78.2488C16.9045 77.0913 15.9743 76.2232 14.7824 75.6444C13.5904 75.0656 12.2055 74.7763 10.6277 74.7763H8.19553V90.2925L8.18864 90.2994Z" fill="#132035"/>
<path d="M30.5469 97.7475V67.3626H52.4915V74.2664H38.5393V79.0618H50.1076V85.4006H38.5393V90.7611H52.6707V97.7475H30.5538H30.5469Z" fill="#132035"/>
<path d="M56.9961 97.7475V67.3626H64.9403L76.5086 84.8357V67.3626H84.2323V97.7475H76.2881L64.7198 80.0127V97.7475H56.9961Z" fill="#132035"/>
<path d="M94.9141 97.7475V74.6316H86.9492V67.3626H110.913V74.6316H102.948V97.7475H94.9209H94.9141Z" fill="#132035"/>
<path d="M127.062 98.3952C124.706 98.3952 122.536 97.9956 120.551 97.1894C118.567 96.3833 116.844 95.2671 115.384 93.834C113.923 92.4009 112.786 90.7197 111.987 88.7974C111.181 86.8751 110.781 84.7874 110.781 82.5482C110.781 80.3089 111.181 78.2006 111.987 76.2783C112.786 74.356 113.923 72.6748 115.384 71.2417C116.844 69.8086 118.567 68.6924 120.551 67.9C122.536 67.1077 124.706 66.7081 127.062 66.7081C129.419 66.7081 131.589 67.1146 133.56 67.9207C135.53 68.7268 137.26 69.8568 138.727 71.3037C140.195 72.7506 141.338 74.4318 142.145 76.3472C142.958 78.2626 143.357 80.3296 143.357 82.5413C143.357 84.753 142.951 86.8682 142.145 88.7905C141.332 90.7128 140.195 92.394 138.727 93.8271C137.26 95.2602 135.537 96.3764 133.56 97.1825C131.582 97.9887 129.419 98.3883 127.062 98.3883V98.3952ZM127.062 90.9126C128.22 90.9126 129.281 90.7197 130.239 90.327C131.196 89.9343 132.037 89.3762 132.747 88.6458C133.456 87.9155 134.007 87.0336 134.393 86.007C134.786 84.9803 134.979 83.8297 134.979 82.5551C134.979 80.8464 134.641 79.365 133.959 78.1179C133.277 76.8639 132.34 75.8993 131.148 75.2172C129.956 74.5351 128.592 74.1975 127.055 74.1975C125.912 74.1975 124.858 74.3904 123.886 74.7832C122.915 75.1759 122.081 75.734 121.371 76.4574C120.662 77.1809 120.117 78.0628 119.731 79.0963C119.346 80.1298 119.159 81.2873 119.159 82.5551C119.159 84.2638 119.497 85.7451 120.179 86.9922C120.861 88.2462 121.791 89.2108 122.977 89.8929C124.162 90.575 125.526 90.9126 127.055 90.9126H127.062Z" fill="#132035"/>
<path d="M146.941 97.7475V67.3626H154.927V90.4579H166.778V97.7475H146.941Z" fill="#132035"/>
<path d="M76.0155 117.797C75.4092 117.797 74.8304 117.701 74.2792 117.508C73.728 117.315 73.2733 117.067 72.9219 116.757L73.4937 115.779C73.8245 116.082 74.2103 116.316 74.6582 116.488C75.106 116.654 75.5607 116.743 76.0224 116.743C76.6287 116.743 77.1041 116.626 77.4486 116.399C77.7931 116.171 77.9654 115.848 77.9654 115.434C77.9654 115.041 77.8207 114.752 77.5244 114.559C77.235 114.366 76.6907 114.173 75.9052 113.973C74.9475 113.739 74.2516 113.443 73.8245 113.078C73.3973 112.713 73.1837 112.21 73.1837 111.562C73.1837 111.107 73.3077 110.708 73.5626 110.349C73.8107 109.991 74.1621 109.715 74.603 109.509C75.044 109.302 75.5607 109.206 76.1395 109.206C76.7183 109.206 77.235 109.288 77.7311 109.454C78.2272 109.619 78.6544 109.86 79.0264 110.17L78.489 111.162C78.303 110.976 78.0825 110.811 77.8276 110.68C77.5726 110.542 77.3039 110.439 77.0145 110.363C76.7252 110.287 76.4289 110.253 76.1257 110.253C75.6021 110.253 75.1749 110.363 74.8442 110.59C74.5135 110.811 74.3481 111.121 74.3481 111.514C74.3481 111.906 74.5135 112.217 74.8373 112.409C75.168 112.602 75.6917 112.782 76.4151 112.954C77.3797 113.181 78.0756 113.477 78.5028 113.843C78.93 114.208 79.1435 114.718 79.1435 115.358C79.1435 115.854 79.0126 116.282 78.7577 116.647C78.4959 117.012 78.1376 117.294 77.6691 117.501C77.2006 117.708 76.6494 117.804 76.0224 117.804L76.0155 117.797Z" fill="#132035"/>
<path d="M81.6367 117.549V109.529H82.8631V110.715C83.0974 110.37 83.3661 110.094 83.6555 109.888C83.9449 109.681 84.2549 109.523 84.5787 109.426C84.9026 109.33 85.2333 109.281 85.564 109.281C86.2668 109.281 86.8387 109.433 87.2796 109.736C87.7206 110.039 88.0306 110.411 88.2236 110.859C88.6783 110.225 89.1744 109.805 89.7049 109.591C90.2354 109.385 90.7453 109.274 91.2414 109.274C91.9579 109.274 92.5367 109.419 92.9777 109.709C93.4186 109.998 93.7424 110.37 93.9423 110.818C94.1421 111.266 94.2454 111.72 94.2454 112.189V117.549H93.019V112.554C93.019 111.927 92.8467 111.417 92.4954 111.018C92.144 110.625 91.6272 110.425 90.9451 110.425C90.4973 110.425 90.0976 110.528 89.7325 110.728C89.3742 110.928 89.0848 111.211 88.8712 111.569C88.6576 111.927 88.5543 112.341 88.5543 112.816V117.542H87.3279V112.547C87.3279 111.92 87.1556 111.41 86.8042 111.011C86.4528 110.618 85.9361 110.418 85.254 110.418C84.8061 110.418 84.3996 110.522 84.0413 110.721C83.683 110.921 83.3868 111.204 83.1801 111.562C82.9665 111.92 82.8631 112.334 82.8631 112.809V117.536H81.6367V117.549Z" fill="#132035"/>
<path d="M97.7328 107.924C97.4778 107.924 97.2643 107.841 97.0851 107.669C96.906 107.497 96.8164 107.283 96.8164 107.035C96.8164 106.787 96.906 106.56 97.0851 106.388C97.2643 106.215 97.4778 106.133 97.7328 106.133C97.9877 106.133 98.2013 106.215 98.3804 106.388C98.5596 106.56 98.6491 106.773 98.6491 107.035C98.6491 107.297 98.5596 107.504 98.3804 107.669C98.2013 107.834 97.9877 107.924 97.7328 107.924ZM97.1196 117.549V109.529H98.346V117.549H97.1196Z" fill="#132035"/>
<path d="M101.316 117.549V105.643H102.543V117.549H101.316Z" fill="#132035"/>
<path d="M109.066 117.797C108.225 117.797 107.481 117.618 106.834 117.267C106.186 116.916 105.683 116.419 105.318 115.786C104.953 115.152 104.773 114.408 104.773 113.567C104.773 112.954 104.877 112.389 105.083 111.865C105.29 111.341 105.58 110.887 105.959 110.501C106.337 110.115 106.778 109.819 107.281 109.605C107.784 109.392 108.336 109.288 108.928 109.288C109.562 109.288 110.127 109.399 110.623 109.626C111.119 109.853 111.533 110.163 111.87 110.57C112.201 110.969 112.442 111.445 112.587 111.989C112.731 112.533 112.773 113.119 112.697 113.746H106.034C106.007 114.339 106.117 114.862 106.365 115.303C106.613 115.744 106.978 116.096 107.454 116.344C107.936 116.592 108.501 116.716 109.162 116.716C109.596 116.716 110.031 116.64 110.458 116.495C110.885 116.344 111.257 116.137 111.567 115.861L112.16 116.812C111.891 117.033 111.581 117.219 111.229 117.37C110.878 117.522 110.52 117.632 110.148 117.708C109.776 117.777 109.41 117.818 109.052 117.818L109.066 117.797ZM106.103 112.719H111.45C111.422 111.975 111.195 111.397 110.768 110.976C110.341 110.556 109.727 110.349 108.921 110.349C108.115 110.349 107.502 110.556 106.992 110.976C106.482 111.397 106.186 111.975 106.103 112.719Z" fill="#132035"/>
<path d="M121.93 117.797C121.323 117.797 120.744 117.701 120.193 117.508C119.642 117.315 119.187 117.067 118.836 116.757L119.408 115.779C119.739 116.082 120.124 116.316 120.572 116.488C121.02 116.654 121.475 116.743 121.936 116.743C122.543 116.743 123.018 116.626 123.363 116.399C123.707 116.171 123.879 115.848 123.879 115.434C123.879 115.041 123.735 114.752 123.438 114.559C123.149 114.366 122.605 114.173 121.819 113.973C120.862 113.739 120.166 113.443 119.739 113.078C119.311 112.713 119.098 112.21 119.098 111.562C119.098 111.107 119.222 110.708 119.477 110.349C119.725 109.991 120.076 109.715 120.517 109.509C120.958 109.302 121.475 109.206 122.054 109.206C122.632 109.206 123.149 109.288 123.645 109.454C124.141 109.619 124.568 109.86 124.94 110.17L124.403 111.162C124.217 110.976 123.997 110.811 123.742 110.68C123.487 110.542 123.218 110.439 122.929 110.363C122.639 110.287 122.343 110.253 122.04 110.253C121.516 110.253 121.089 110.363 120.758 110.59C120.428 110.811 120.262 111.121 120.262 111.514C120.262 111.906 120.428 112.217 120.751 112.409C121.082 112.602 121.606 112.782 122.329 112.954C123.294 113.181 123.99 113.477 124.417 113.843C124.844 114.208 125.058 114.718 125.058 115.358C125.058 115.854 124.927 116.282 124.672 116.647C124.41 117.012 124.052 117.294 123.583 117.501C123.115 117.708 122.563 117.804 121.936 117.804L121.93 117.797Z" fill="#132035"/>
<path d="M126.52 110.604V109.529H128.655V110.604H126.52ZM130.819 117.797C130.109 117.797 129.53 117.591 129.089 117.17C128.649 116.75 128.428 116.096 128.428 115.2V107.152H129.654V109.523H132.121V110.597H129.654V114.849C129.654 115.503 129.772 115.965 129.999 116.233C130.226 116.502 130.571 116.633 131.026 116.633C131.232 116.633 131.418 116.612 131.591 116.564C131.763 116.516 131.914 116.468 132.052 116.399L132.355 117.425C132.128 117.536 131.887 117.625 131.618 117.687C131.356 117.756 131.088 117.784 130.819 117.784V117.797Z" fill="#132035"/>
<path d="M137.748 117.797C137.045 117.797 136.46 117.653 135.998 117.356C135.537 117.06 135.185 116.695 134.958 116.24C134.724 115.786 134.613 115.317 134.613 114.835V109.529H135.84V114.532C135.84 115.159 136.033 115.668 136.425 116.054C136.818 116.44 137.349 116.64 138.024 116.64C138.465 116.64 138.864 116.537 139.216 116.337C139.574 116.137 139.857 115.854 140.07 115.489C140.284 115.124 140.387 114.704 140.387 114.222V109.523H141.614V117.542H140.449V116.523C140.098 116.957 139.691 117.281 139.236 117.48C138.782 117.68 138.293 117.784 137.762 117.784L137.748 117.797Z" fill="#132035"/>
<path d="M147.877 117.797C147.078 117.797 146.375 117.604 145.769 117.226C145.163 116.847 144.687 116.33 144.35 115.689C144.012 115.048 143.84 114.325 143.84 113.539C143.84 112.954 143.936 112.403 144.136 111.893C144.336 111.383 144.612 110.921 144.97 110.535C145.328 110.143 145.755 109.839 146.251 109.619C146.747 109.399 147.299 109.288 147.898 109.288C148.711 109.288 149.393 109.454 149.958 109.777C150.523 110.108 150.985 110.542 151.336 111.08L151.116 111.355V105.65H152.342V117.556H151.178V115.73L151.371 116.013C151.033 116.523 150.592 116.943 150.048 117.288C149.503 117.632 148.787 117.804 147.898 117.804L147.877 117.797ZM148.098 116.667C148.684 116.667 149.2 116.537 149.655 116.282C150.11 116.027 150.461 115.662 150.716 115.2C150.971 114.731 151.102 114.18 151.102 113.539C151.102 112.899 150.971 112.347 150.716 111.879C150.461 111.41 150.103 111.052 149.655 110.797C149.2 110.542 148.684 110.418 148.098 110.418C147.512 110.418 146.995 110.542 146.548 110.797C146.1 111.052 145.741 111.41 145.487 111.879C145.232 112.347 145.101 112.899 145.101 113.539C145.101 114.18 145.232 114.731 145.487 115.2C145.748 115.668 146.1 116.027 146.548 116.282C146.995 116.537 147.512 116.667 148.098 116.667Z" fill="#132035"/>
<path d="M155.897 107.924C155.642 107.924 155.428 107.841 155.249 107.669C155.07 107.497 154.98 107.283 154.98 107.035C154.98 106.787 155.07 106.56 155.249 106.388C155.428 106.215 155.642 106.133 155.897 106.133C156.152 106.133 156.365 106.215 156.545 106.388C156.724 106.56 156.813 106.773 156.813 107.035C156.813 107.297 156.724 107.504 156.545 107.669C156.365 107.834 156.152 107.924 155.897 107.924ZM155.284 117.549V109.529H156.51V117.549H155.284Z" fill="#132035"/>
<path d="M163.015 117.797C162.202 117.797 161.472 117.605 160.824 117.219C160.176 116.833 159.673 116.316 159.301 115.668C158.929 115.021 158.75 114.311 158.75 113.539C158.75 112.961 158.853 112.416 159.067 111.9C159.281 111.39 159.577 110.935 159.963 110.542C160.348 110.15 160.803 109.839 161.32 109.619C161.837 109.399 162.402 109.281 163.015 109.281C163.835 109.281 164.565 109.474 165.213 109.86C165.854 110.246 166.363 110.763 166.729 111.41C167.101 112.058 167.28 112.768 167.28 113.539C167.28 114.111 167.176 114.656 166.963 115.172C166.749 115.689 166.453 116.144 166.074 116.537C165.695 116.929 165.24 117.239 164.724 117.46C164.207 117.68 163.635 117.797 163.015 117.797ZM163.015 116.667C163.601 116.667 164.117 116.537 164.572 116.282C165.027 116.027 165.378 115.662 165.633 115.2C165.888 114.731 166.019 114.18 166.019 113.539C166.019 112.899 165.888 112.347 165.633 111.879C165.378 111.41 165.02 111.052 164.572 110.797C164.117 110.542 163.601 110.418 163.015 110.418C162.429 110.418 161.913 110.542 161.458 110.797C161.003 111.052 160.652 111.41 160.397 111.879C160.142 112.347 160.011 112.899 160.011 113.539C160.011 114.18 160.142 114.731 160.397 115.2C160.659 115.668 161.01 116.027 161.458 116.282C161.906 116.537 162.422 116.667 163.008 116.667H163.015Z" fill="#132035"/>
<path d="M104.256 16.3491C102.485 13.1865 99.9704 10.4719 96.7184 8.19818C93.4663 5.93137 89.477 4.14686 84.7435 2.84465C80.017 1.54933 74.691 0.901672 68.7794 0.901672C64.3698 0.901672 60.8008 4.37423 60.8008 8.65292V32.327C69.2066 30.5287 77.2128 27.1319 84.1786 22.0471C82.9108 20.6209 81.3468 19.484 79.5416 18.6572C78.8457 18.3196 78.1291 18.0647 77.4126 17.7615C78.9077 16.9554 80.6853 16.8245 82.3527 17.2103C87.2377 18.3127 90.4209 24.0038 88.5744 28.5375C88.2505 29.1851 88.347 29.2265 88.0576 28.5375L87.8303 28.0069C86.9897 26.0915 85.9424 24.1692 84.6333 22.5707C80.0308 29.8466 72.438 35.0485 64.3216 38.2179C63.1641 38.6658 61.9928 39.0654 60.8077 39.4306V52.2391H68.7863C74.815 52.2391 80.1961 51.5914 84.9296 50.2892C89.6561 48.9939 93.6523 47.2094 96.9044 44.9357C100.156 42.6689 102.637 39.968 104.352 36.8468C106.068 33.7256 106.922 30.3013 106.922 26.5669C106.922 22.8325 106.034 19.5116 104.263 16.3491H104.256Z" fill="#132035"/>
</g>
<defs>
<clipPath id="clip0_369_2781">
<rect width="167.076" height="116.896" fill="white" transform="translate(0.203125 0.901672)"/>
</clipPath>
</defs>
</svg>
