<svg width="65" height="65" viewBox="0 0 65 65" fill="none" xmlns="http://www.w3.org/2000/svg">
<mask id="path-1-outside-1_331_924" maskUnits="userSpaceOnUse" x="0.0507812" y="-0.260132" width="65" height="65" fill="black">
<rect fill="white" x="0.0507812" y="-0.260132" width="65" height="65"/>
<path d="M62.1869 41.0412L48.8864 33.0609C48.4098 32.7773 47.8913 32.5709 47.3501 32.4495V30.0978C48.5377 29.8535 49.6047 29.2074 50.3714 28.2682C51.1381 27.3289 51.5576 26.1541 51.5591 24.9417C51.5591 24.6626 51.4483 24.395 51.2509 24.1977C51.0536 24.0003 50.786 23.8895 50.5069 23.8895H45.2456V6.00114C45.2439 4.60628 44.6891 3.26902 43.7028 2.2827C42.7165 1.29639 41.3792 0.741539 39.9844 0.739868H32.6186C31.3931 0.741555 30.2067 1.17096 29.264 1.95398C28.3214 2.737 27.6816 3.82451 27.4552 5.02886C25.9647 5.25678 24.605 6.01059 23.6221 7.15392C22.6391 8.29726 22.0978 9.75463 22.096 11.2624V12.3147C22.096 12.5937 22.2069 12.8614 22.4042 13.0587C22.6016 13.2561 22.8692 13.3669 23.1483 13.3669H33.6708C33.9499 13.3669 34.2175 13.2561 34.4149 13.0587C34.6122 12.8614 34.7231 12.5937 34.7231 12.3147V11.2624C34.7208 9.79861 34.2107 8.38095 33.2798 7.25127C32.349 6.12159 31.055 5.34988 29.6186 5.06779C29.8161 4.42567 30.2138 3.86354 30.7535 3.46352C31.2933 3.0635 31.9468 2.84656 32.6186 2.84438H39.9844C40.8216 2.84438 41.6245 3.17696 42.2165 3.76897C42.8085 4.36098 43.1411 5.16391 43.1411 6.00114V23.8895H37.8798C37.6008 23.8895 37.3331 24.0003 37.1358 24.1977C36.9384 24.395 36.8276 24.6626 36.8276 24.9417C36.8291 26.1541 37.2486 27.3289 38.0153 28.2682C38.782 29.2074 39.849 29.8535 41.0366 30.0978V32.3075H22.7169C21.9106 32.3085 21.1347 32 20.5492 31.4457L7.98215 19.5752C7.40249 19.0175 6.66998 18.645 5.87788 18.505C5.08579 18.365 4.26996 18.464 3.53427 18.7892C2.79246 19.1011 2.16022 19.6267 1.718 20.299C1.27578 20.9713 1.04358 21.76 1.05095 22.5647C1.05183 23.1265 1.16746 23.6821 1.39074 24.1976C1.61402 24.7131 1.94026 25.1776 2.34943 25.5625L17.0052 39.3018C17.9791 40.2183 19.2666 40.7276 20.6039 40.7255H22.2013C22.4455 41.9131 23.0917 42.9801 24.0309 43.7468C24.9701 44.5135 26.1449 44.933 27.3573 44.9345H29.4618V57.5616H25.2528C23.8579 57.5633 22.5207 58.1181 21.5344 59.1044C20.548 60.0907 19.9932 61.428 19.9915 62.8229C19.9915 63.1019 20.1024 63.3696 20.2997 63.5669C20.4971 63.7643 20.7647 63.8751 21.0438 63.8751H44.1934C44.4724 63.8751 44.7401 63.7643 44.9374 63.5669C45.1348 63.3696 45.2456 63.1019 45.2456 62.8229C45.2439 61.428 44.6891 60.0907 43.7028 59.1044C42.7165 58.1181 41.3792 57.5633 39.9844 57.5616H35.7753V44.9345H37.8798C39.0923 44.933 40.2671 44.5135 41.2063 43.7468C42.1455 42.9801 42.7917 41.9131 43.0359 40.7255H45.092C45.6836 40.7255 46.2634 40.8918 46.7651 41.2054L57.899 48.1639C58.5211 48.5524 59.2358 48.7674 59.969 48.7865C60.7022 48.8056 61.4272 48.6281 62.0687 48.2726C62.7102 47.917 63.2449 47.3962 63.6172 46.7643C63.9895 46.1323 64.186 45.4123 64.1862 44.6788V44.561C64.1829 43.8521 63.9972 43.1559 63.6471 42.5395C63.2969 41.9231 62.7941 41.4071 62.1869 41.0412ZM32.6186 11.2624H24.2005C24.2005 10.1461 24.644 9.07553 25.4333 8.28618C26.2227 7.49684 27.2933 7.05339 28.4096 7.05339C29.5259 7.05339 30.5964 7.49684 31.3858 8.28618C32.1751 9.07553 32.6186 10.1461 32.6186 11.2624ZM39.112 25.994H49.2747C49.0563 26.609 48.6529 27.1414 48.12 27.5182C47.587 27.895 46.9506 28.0977 46.2979 28.0985H42.0889C41.4362 28.0977 40.7997 27.895 40.2668 27.5182C39.7338 27.1414 39.3305 26.609 39.112 25.994ZM43.1411 30.203H45.2456V32.3075H43.1411V30.203ZM42.9612 61.7706H22.276C22.4944 61.1556 22.8977 60.6231 23.4307 60.2464C23.9637 59.8696 24.6001 59.6669 25.2528 59.6661H39.9844C40.637 59.6669 41.2735 59.8696 41.8064 60.2464C42.3394 60.6231 42.7427 61.1556 42.9612 61.7706ZM33.6708 57.5616H31.5663V44.9345H33.6708V57.5616ZM37.8798 42.83H27.3573C26.7046 42.8292 26.0682 42.6265 25.5352 42.2498C25.0023 41.873 24.5989 41.3406 24.3805 40.7255H40.8567C40.6382 41.3406 40.2349 41.873 39.7019 42.2498C39.169 42.6265 38.5325 42.8292 37.8798 42.83ZM62.0817 44.6788C62.0816 45.0368 61.9857 45.3882 61.804 45.6966C61.6223 46.005 61.3613 46.2591 61.0483 46.4327C60.7352 46.6062 60.3813 46.6927 60.0235 46.6833C59.6657 46.6739 59.3169 46.569 59.0133 46.3793L47.8763 39.4207C47.0401 38.8981 46.0738 38.621 45.0878 38.621H20.6039C19.8015 38.6223 19.029 38.3166 18.4447 37.7666L3.78681 24.0273C3.5875 23.8394 3.42868 23.6127 3.32011 23.3612C3.21155 23.1097 3.15552 22.8386 3.15546 22.5647C3.14876 22.1715 3.26075 21.7855 3.47681 21.457C3.69288 21.1285 4.00297 20.8728 4.3666 20.7232C4.62315 20.6109 4.89994 20.5522 5.18 20.5507C5.68729 20.5533 6.17381 20.7525 6.5374 21.1062L19.1045 32.9757C20.0801 33.8996 21.3732 34.4138 22.7169 34.412H46.1821C46.7543 34.4123 47.3158 34.5675 47.8068 34.8613L61.1063 42.8416C61.4029 43.0202 61.6486 43.2722 61.8194 43.5734C61.9903 43.8746 62.0806 44.2147 62.0817 44.561V44.6788Z"/>
</mask>
<path d="M62.1869 41.0412L48.8864 33.0609C48.4098 32.7773 47.8913 32.5709 47.3501 32.4495V30.0978C48.5377 29.8535 49.6047 29.2074 50.3714 28.2682C51.1381 27.3289 51.5576 26.1541 51.5591 24.9417C51.5591 24.6626 51.4483 24.395 51.2509 24.1977C51.0536 24.0003 50.786 23.8895 50.5069 23.8895H45.2456V6.00114C45.2439 4.60628 44.6891 3.26902 43.7028 2.2827C42.7165 1.29639 41.3792 0.741539 39.9844 0.739868H32.6186C31.3931 0.741555 30.2067 1.17096 29.264 1.95398C28.3214 2.737 27.6816 3.82451 27.4552 5.02886C25.9647 5.25678 24.605 6.01059 23.6221 7.15392C22.6391 8.29726 22.0978 9.75463 22.096 11.2624V12.3147C22.096 12.5937 22.2069 12.8614 22.4042 13.0587C22.6016 13.2561 22.8692 13.3669 23.1483 13.3669H33.6708C33.9499 13.3669 34.2175 13.2561 34.4149 13.0587C34.6122 12.8614 34.7231 12.5937 34.7231 12.3147V11.2624C34.7208 9.79861 34.2107 8.38095 33.2798 7.25127C32.349 6.12159 31.055 5.34988 29.6186 5.06779C29.8161 4.42567 30.2138 3.86354 30.7535 3.46352C31.2933 3.0635 31.9468 2.84656 32.6186 2.84438H39.9844C40.8216 2.84438 41.6245 3.17696 42.2165 3.76897C42.8085 4.36098 43.1411 5.16391 43.1411 6.00114V23.8895H37.8798C37.6008 23.8895 37.3331 24.0003 37.1358 24.1977C36.9384 24.395 36.8276 24.6626 36.8276 24.9417C36.8291 26.1541 37.2486 27.3289 38.0153 28.2682C38.782 29.2074 39.849 29.8535 41.0366 30.0978V32.3075H22.7169C21.9106 32.3085 21.1347 32 20.5492 31.4457L7.98215 19.5752C7.40249 19.0175 6.66998 18.645 5.87788 18.505C5.08579 18.365 4.26996 18.464 3.53427 18.7892C2.79246 19.1011 2.16022 19.6267 1.718 20.299C1.27578 20.9713 1.04358 21.76 1.05095 22.5647C1.05183 23.1265 1.16746 23.6821 1.39074 24.1976C1.61402 24.7131 1.94026 25.1776 2.34943 25.5625L17.0052 39.3018C17.9791 40.2183 19.2666 40.7276 20.6039 40.7255H22.2013C22.4455 41.9131 23.0917 42.9801 24.0309 43.7468C24.9701 44.5135 26.1449 44.933 27.3573 44.9345H29.4618V57.5616H25.2528C23.8579 57.5633 22.5207 58.1181 21.5344 59.1044C20.548 60.0907 19.9932 61.428 19.9915 62.8229C19.9915 63.1019 20.1024 63.3696 20.2997 63.5669C20.4971 63.7643 20.7647 63.8751 21.0438 63.8751H44.1934C44.4724 63.8751 44.7401 63.7643 44.9374 63.5669C45.1348 63.3696 45.2456 63.1019 45.2456 62.8229C45.2439 61.428 44.6891 60.0907 43.7028 59.1044C42.7165 58.1181 41.3792 57.5633 39.9844 57.5616H35.7753V44.9345H37.8798C39.0923 44.933 40.2671 44.5135 41.2063 43.7468C42.1455 42.9801 42.7917 41.9131 43.0359 40.7255H45.092C45.6836 40.7255 46.2634 40.8918 46.7651 41.2054L57.899 48.1639C58.5211 48.5524 59.2358 48.7674 59.969 48.7865C60.7022 48.8056 61.4272 48.6281 62.0687 48.2726C62.7102 47.917 63.2449 47.3962 63.6172 46.7643C63.9895 46.1323 64.186 45.4123 64.1862 44.6788V44.561C64.1829 43.8521 63.9972 43.1559 63.6471 42.5395C63.2969 41.9231 62.7941 41.4071 62.1869 41.0412ZM32.6186 11.2624H24.2005C24.2005 10.1461 24.644 9.07553 25.4333 8.28618C26.2227 7.49684 27.2933 7.05339 28.4096 7.05339C29.5259 7.05339 30.5964 7.49684 31.3858 8.28618C32.1751 9.07553 32.6186 10.1461 32.6186 11.2624ZM39.112 25.994H49.2747C49.0563 26.609 48.6529 27.1414 48.12 27.5182C47.587 27.895 46.9506 28.0977 46.2979 28.0985H42.0889C41.4362 28.0977 40.7997 27.895 40.2668 27.5182C39.7338 27.1414 39.3305 26.609 39.112 25.994ZM43.1411 30.203H45.2456V32.3075H43.1411V30.203ZM42.9612 61.7706H22.276C22.4944 61.1556 22.8977 60.6231 23.4307 60.2464C23.9637 59.8696 24.6001 59.6669 25.2528 59.6661H39.9844C40.637 59.6669 41.2735 59.8696 41.8064 60.2464C42.3394 60.6231 42.7427 61.1556 42.9612 61.7706ZM33.6708 57.5616H31.5663V44.9345H33.6708V57.5616ZM37.8798 42.83H27.3573C26.7046 42.8292 26.0682 42.6265 25.5352 42.2498C25.0023 41.873 24.5989 41.3406 24.3805 40.7255H40.8567C40.6382 41.3406 40.2349 41.873 39.7019 42.2498C39.169 42.6265 38.5325 42.8292 37.8798 42.83ZM62.0817 44.6788C62.0816 45.0368 61.9857 45.3882 61.804 45.6966C61.6223 46.005 61.3613 46.2591 61.0483 46.4327C60.7352 46.6062 60.3813 46.6927 60.0235 46.6833C59.6657 46.6739 59.3169 46.569 59.0133 46.3793L47.8763 39.4207C47.0401 38.8981 46.0738 38.621 45.0878 38.621H20.6039C19.8015 38.6223 19.029 38.3166 18.4447 37.7666L3.78681 24.0273C3.5875 23.8394 3.42868 23.6127 3.32011 23.3612C3.21155 23.1097 3.15552 22.8386 3.15546 22.5647C3.14876 22.1715 3.26075 21.7855 3.47681 21.457C3.69288 21.1285 4.00297 20.8728 4.3666 20.7232C4.62315 20.6109 4.89994 20.5522 5.18 20.5507C5.68729 20.5533 6.17381 20.7525 6.5374 21.1062L19.1045 32.9757C20.0801 33.8996 21.3732 34.4138 22.7169 34.412H46.1821C46.7543 34.4123 47.3158 34.5675 47.8068 34.8613L61.1063 42.8416C61.4029 43.0202 61.6486 43.2722 61.8194 43.5734C61.9903 43.8746 62.0806 44.2147 62.0817 44.561V44.6788Z" fill="#D1E2AC"/>
<path d="M62.1869 41.0412L48.8864 33.0609C48.4098 32.7773 47.8913 32.5709 47.3501 32.4495V30.0978C48.5377 29.8535 49.6047 29.2074 50.3714 28.2682C51.1381 27.3289 51.5576 26.1541 51.5591 24.9417C51.5591 24.6626 51.4483 24.395 51.2509 24.1977C51.0536 24.0003 50.786 23.8895 50.5069 23.8895H45.2456V6.00114C45.2439 4.60628 44.6891 3.26902 43.7028 2.2827C42.7165 1.29639 41.3792 0.741539 39.9844 0.739868H32.6186C31.3931 0.741555 30.2067 1.17096 29.264 1.95398C28.3214 2.737 27.6816 3.82451 27.4552 5.02886C25.9647 5.25678 24.605 6.01059 23.6221 7.15392C22.6391 8.29726 22.0978 9.75463 22.096 11.2624V12.3147C22.096 12.5937 22.2069 12.8614 22.4042 13.0587C22.6016 13.2561 22.8692 13.3669 23.1483 13.3669H33.6708C33.9499 13.3669 34.2175 13.2561 34.4149 13.0587C34.6122 12.8614 34.7231 12.5937 34.7231 12.3147V11.2624C34.7208 9.79861 34.2107 8.38095 33.2798 7.25127C32.349 6.12159 31.055 5.34988 29.6186 5.06779C29.8161 4.42567 30.2138 3.86354 30.7535 3.46352C31.2933 3.0635 31.9468 2.84656 32.6186 2.84438H39.9844C40.8216 2.84438 41.6245 3.17696 42.2165 3.76897C42.8085 4.36098 43.1411 5.16391 43.1411 6.00114V23.8895H37.8798C37.6008 23.8895 37.3331 24.0003 37.1358 24.1977C36.9384 24.395 36.8276 24.6626 36.8276 24.9417C36.8291 26.1541 37.2486 27.3289 38.0153 28.2682C38.782 29.2074 39.849 29.8535 41.0366 30.0978V32.3075H22.7169C21.9106 32.3085 21.1347 32 20.5492 31.4457L7.98215 19.5752C7.40249 19.0175 6.66998 18.645 5.87788 18.505C5.08579 18.365 4.26996 18.464 3.53427 18.7892C2.79246 19.1011 2.16022 19.6267 1.718 20.299C1.27578 20.9713 1.04358 21.76 1.05095 22.5647C1.05183 23.1265 1.16746 23.6821 1.39074 24.1976C1.61402 24.7131 1.94026 25.1776 2.34943 25.5625L17.0052 39.3018C17.9791 40.2183 19.2666 40.7276 20.6039 40.7255H22.2013C22.4455 41.9131 23.0917 42.9801 24.0309 43.7468C24.9701 44.5135 26.1449 44.933 27.3573 44.9345H29.4618V57.5616H25.2528C23.8579 57.5633 22.5207 58.1181 21.5344 59.1044C20.548 60.0907 19.9932 61.428 19.9915 62.8229C19.9915 63.1019 20.1024 63.3696 20.2997 63.5669C20.4971 63.7643 20.7647 63.8751 21.0438 63.8751H44.1934C44.4724 63.8751 44.7401 63.7643 44.9374 63.5669C45.1348 63.3696 45.2456 63.1019 45.2456 62.8229C45.2439 61.428 44.6891 60.0907 43.7028 59.1044C42.7165 58.1181 41.3792 57.5633 39.9844 57.5616H35.7753V44.9345H37.8798C39.0923 44.933 40.2671 44.5135 41.2063 43.7468C42.1455 42.9801 42.7917 41.9131 43.0359 40.7255H45.092C45.6836 40.7255 46.2634 40.8918 46.7651 41.2054L57.899 48.1639C58.5211 48.5524 59.2358 48.7674 59.969 48.7865C60.7022 48.8056 61.4272 48.6281 62.0687 48.2726C62.7102 47.917 63.2449 47.3962 63.6172 46.7643C63.9895 46.1323 64.186 45.4123 64.1862 44.6788V44.561C64.1829 43.8521 63.9972 43.1559 63.6471 42.5395C63.2969 41.9231 62.7941 41.4071 62.1869 41.0412ZM32.6186 11.2624H24.2005C24.2005 10.1461 24.644 9.07553 25.4333 8.28618C26.2227 7.49684 27.2933 7.05339 28.4096 7.05339C29.5259 7.05339 30.5964 7.49684 31.3858 8.28618C32.1751 9.07553 32.6186 10.1461 32.6186 11.2624ZM39.112 25.994H49.2747C49.0563 26.609 48.6529 27.1414 48.12 27.5182C47.587 27.895 46.9506 28.0977 46.2979 28.0985H42.0889C41.4362 28.0977 40.7997 27.895 40.2668 27.5182C39.7338 27.1414 39.3305 26.609 39.112 25.994ZM43.1411 30.203H45.2456V32.3075H43.1411V30.203ZM42.9612 61.7706H22.276C22.4944 61.1556 22.8977 60.6231 23.4307 60.2464C23.9637 59.8696 24.6001 59.6669 25.2528 59.6661H39.9844C40.637 59.6669 41.2735 59.8696 41.8064 60.2464C42.3394 60.6231 42.7427 61.1556 42.9612 61.7706ZM33.6708 57.5616H31.5663V44.9345H33.6708V57.5616ZM37.8798 42.83H27.3573C26.7046 42.8292 26.0682 42.6265 25.5352 42.2498C25.0023 41.873 24.5989 41.3406 24.3805 40.7255H40.8567C40.6382 41.3406 40.2349 41.873 39.7019 42.2498C39.169 42.6265 38.5325 42.8292 37.8798 42.83ZM62.0817 44.6788C62.0816 45.0368 61.9857 45.3882 61.804 45.6966C61.6223 46.005 61.3613 46.2591 61.0483 46.4327C60.7352 46.6062 60.3813 46.6927 60.0235 46.6833C59.6657 46.6739 59.3169 46.569 59.0133 46.3793L47.8763 39.4207C47.0401 38.8981 46.0738 38.621 45.0878 38.621H20.6039C19.8015 38.6223 19.029 38.3166 18.4447 37.7666L3.78681 24.0273C3.5875 23.8394 3.42868 23.6127 3.32011 23.3612C3.21155 23.1097 3.15552 22.8386 3.15546 22.5647C3.14876 22.1715 3.26075 21.7855 3.47681 21.457C3.69288 21.1285 4.00297 20.8728 4.3666 20.7232C4.62315 20.6109 4.89994 20.5522 5.18 20.5507C5.68729 20.5533 6.17381 20.7525 6.5374 21.1062L19.1045 32.9757C20.0801 33.8996 21.3732 34.4138 22.7169 34.412H46.1821C46.7543 34.4123 47.3158 34.5675 47.8068 34.8613L61.1063 42.8416C61.4029 43.0202 61.6486 43.2722 61.8194 43.5734C61.9903 43.8746 62.0806 44.2147 62.0817 44.561V44.6788Z" stroke="#D1E2AC" stroke-width="0.8" mask="url(#path-1-outside-1_331_924)"/>
<path d="M29.6602 15.2712V19.8806H27.1553V15.2712H29.6602Z" fill="#D1E2AC" stroke="#D1E2AC" stroke-width="0.4"/>
<path d="M34.1303 13.403L36.4347 17.395L34.2652 18.6473L31.9609 14.6552L34.1303 13.403Z" fill="#D1E2AC" stroke="#D1E2AC" stroke-width="0.4"/>
<path d="M22.6876 13.4031L24.8569 14.6556L22.552 18.6474L20.3828 17.3949L22.6876 13.4031Z" fill="#D1E2AC" stroke="#D1E2AC" stroke-width="0.4"/>
</svg>
