<svg width="60" height="56" viewBox="0 0 60 56" fill="none" xmlns="http://www.w3.org/2000/svg">
<g clip-path="url(#clip0_331_920)">
<path fill-rule="evenodd" clip-rule="evenodd" d="M22.5569 23.3052C22.5697 23.3321 22.5824 23.3638 22.5925 23.3907C23.0275 24.1186 23.7448 25.0468 24.7291 26.1655C25.8763 27.4406 27.0998 28.7377 28.425 30.0372C29.8011 31.3318 31.1263 32.5336 32.477 33.6328C33.6598 34.5952 34.6391 35.2669 35.4403 35.6846C35.4581 35.6919 35.4785 35.7017 35.4988 35.709C36.0228 35.2083 37.2437 34.0529 37.2514 34.0455C38.0602 33.2712 38.8436 32.6898 39.5813 32.3113C40.5173 31.7739 41.461 31.5199 42.4759 31.5199C43.2212 31.5199 44.0046 31.6566 44.8669 31.9962C45.5613 32.2698 46.2964 32.6581 47.1053 33.1882L55.8068 39.1239C56.8318 39.8053 57.5211 40.6163 57.9714 41.5934L57.9841 41.6276C58.3478 42.4947 58.5538 43.3643 58.5538 44.3365C58.5538 45.526 58.2842 46.7498 57.6992 47.937C57.1676 49.0166 56.4808 50.0377 55.5702 51C54.0644 52.5951 52.3933 53.7407 50.5161 54.4808C48.6948 55.2063 46.7261 55.5898 44.6048 55.5898C41.6694 55.5898 38.5357 54.94 35.2293 53.5868C32.0727 52.2947 28.911 50.5579 25.7823 48.3692C22.6791 46.1928 19.7361 43.7844 16.9232 41.1074L16.9181 41.1C14.138 38.4033 11.6274 35.5796 9.38414 32.6194L9.37906 32.6145C7.13053 29.61 5.32453 26.6055 4.00442 23.6255L4.00188 23.6231C2.62324 20.4794 1.94922 17.47 1.94922 14.6022C1.94922 12.626 2.3155 10.7427 3.04044 9.00114C3.77553 7.20577 4.93285 5.55454 6.5506 4.08403C8.66941 2.08838 11.0096 1.15283 13.4562 1.15283C14.4991 1.15283 15.5394 1.37267 16.4678 1.80017C17.4675 2.24229 18.3501 2.90911 19.0419 3.86423L25.1313 12.1085C25.7062 12.8755 26.1182 13.5863 26.4057 14.2629C26.7567 15.0568 26.9347 15.8531 26.9347 16.5688C26.9347 17.5141 26.6651 18.4643 26.0979 19.3706C25.6756 20.074 25.0804 20.8142 24.3198 21.5446L22.5569 23.3052ZM35.265 35.9267C35.265 35.9316 35.2625 35.934 35.2599 35.934C35.2599 35.934 35.2625 35.934 35.265 35.9267ZM38.1953 38.7627L37.6865 39.173L37.0608 39.5077L36.3613 39.7104L35.6491 39.7764C35.3693 39.7764 35.1073 39.7544 34.8555 39.708C34.8555 39.708 34.2628 39.5468 34.217 39.5321L34.1738 39.515C34.0084 39.4466 33.866 39.3758 33.7464 39.3294L33.6447 39.2903L33.548 39.2414C32.5586 38.7382 31.2995 37.9077 29.7861 36.679C28.3591 35.5139 26.955 34.2462 25.4848 32.8611L25.4721 32.8465C24.0757 31.4786 22.7861 30.1131 21.5677 28.7624L21.5626 28.7526C20.2883 27.309 19.4005 26.1096 18.8791 25.1912L18.79 25.0349L18.7341 24.8663C18.6883 24.7344 18.6171 24.6074 18.5484 24.4315L18.5077 24.3265L18.4772 24.2166C18.3805 23.8453 18.3373 23.5228 18.3373 23.1516L18.3932 22.5165L18.5866 21.8643L18.9198 21.2487C18.9198 21.2487 19.3191 20.7846 19.3395 20.7578L21.3489 18.7523L21.3616 18.7377C21.8423 18.276 22.234 17.8192 22.5088 17.3478L22.5266 17.3209C22.6817 17.0767 22.7758 16.8226 22.7758 16.5686C22.7758 16.3341 22.6944 16.0776 22.5698 15.8016L22.5622 15.7869C22.3816 15.3594 22.112 14.9173 21.7457 14.4239L15.641 6.16275L15.6334 6.15543C15.3867 5.81101 15.0687 5.57651 14.6999 5.41042L14.6821 5.40553C14.3056 5.2321 13.8783 5.14905 13.4561 5.14905C12.0215 5.14905 10.6912 5.77437 9.43462 6.95904L9.41936 6.9737C8.26459 8.02162 7.4328 9.18922 6.90627 10.4691L6.90372 10.4765C6.37211 11.7589 6.10754 13.1487 6.10754 14.6022C6.10754 16.9764 6.69257 19.4655 7.83462 22.0716C9.03778 24.7904 10.6962 27.5335 12.7489 30.279C14.8677 33.0709 17.2383 35.7384 19.8661 38.2838C22.5165 40.8071 25.2993 43.0861 28.2322 45.1429C31.0912 47.1435 33.9731 48.7337 36.8575 49.9159C39.5919 51.0322 42.1813 51.594 44.6051 51.594C46.1567 51.594 47.5964 51.3229 48.9317 50.7879L48.9368 50.7855C50.2621 50.2652 51.427 49.4445 52.4927 48.3159C53.1083 47.6637 53.5763 46.9701 53.9375 46.2324C54.2453 45.6046 54.3954 44.9622 54.3954 44.3369C54.3954 43.9094 54.2962 43.5283 54.1283 43.1278C53.9859 42.842 53.7468 42.6099 53.4187 42.3901L44.7322 36.469C44.2184 36.1344 43.7453 35.873 43.29 35.6922C42.9974 35.5774 42.7304 35.5139 42.476 35.5139C42.1988 35.5139 41.9495 35.6018 41.6951 35.7509L41.6341 35.7875L41.573 35.8168C41.1305 36.0391 40.6752 36.4079 40.1868 36.8769C40.1868 36.8769 38.2029 38.7529 38.1953 38.7627Z" fill="#D1E2AC"/>
</g>
<defs>
<clipPath id="clip0_331_920">
<rect width="58.8372" height="55" fill="white" transform="translate(0.832031 0.901489)"/>
</clipPath>
</defs>
</svg>
