<?xml version="1.0" encoding="utf-8"?>
<!-- Generator: Adobe Illustrator 26.2.1, SVG Export Plug-In . SVG Version: 6.00 Build 0)  -->
<svg version="1.1" id="Layer_1" xmlns="http://www.w3.org/2000/svg" xmlns:xlink="http://www.w3.org/1999/xlink" x="0px" y="0px"
	 viewBox="0 0 242.6 169.7" style="enable-background:new 0 0 242.6 169.7;" xml:space="preserve">
<style type="text/css">
	.st0{fill:#F16B6C;}
	.st1{fill:#111F35;}
	.st2{fill:#D1E5AB;}
</style>
<path class="st0" d="M-740.9,746.3"/>
<path class="st0" d="M-735.8,746.3"/>
<g>
	<path class="st1" d="M0,140.5V96.4h15.6c4.6,0,8.7,0.9,12.2,2.8c3.5,1.9,6.2,4.4,8.2,7.8c1.9,3.3,2.9,7.2,2.9,11.5s-0.6,6.3-1.7,9
		c-1.1,2.7-2.7,5-4.7,7c-2,1.9-4.5,3.4-7.4,4.5s-6,1.6-9.5,1.6H0V140.5z M11.5,129.7H15c1.7,0,3.3-0.2,4.7-0.7
		c1.4-0.5,2.6-1.2,3.7-2.1c1-1,1.8-2.1,2.4-3.5s0.8-3,0.8-4.9s-0.5-4.6-1.5-6.2c-1-1.7-2.3-2.9-4.1-3.8s-3.7-1.3-6-1.3h-3.5V129.7z"
		/>
	<path class="st1" d="M44,140.5V96.4h31.8v10H55.5v7h16.8v9.2H55.5v7.8H76v10.1H43.9H44z"/>
	<path class="st1" d="M82.4,140.5V96.4h11.5l16.8,25.4V96.4h11.2v44.1h-11.5l-16.8-25.7v25.7H82.4z"/>
	<path class="st1" d="M137.4,140.5V107h-11.6V96.4h34.8V107H149v33.5h-11.7H137.4z"/>
	<path class="st1" d="M184.1,141.4c-3.4,0-6.6-0.6-9.5-1.7c-2.9-1.1-5.4-2.8-7.5-4.9c-2.1-2.1-3.8-4.5-4.9-7.3
		c-1.2-2.8-1.7-5.8-1.7-9.1s0.6-6.3,1.7-9.1c1.2-2.8,2.8-5.2,4.9-7.3c2.1-2.1,4.6-3.7,7.5-4.9s6-1.7,9.5-1.7s6.6,0.6,9.4,1.8
		s5.4,2.8,7.5,4.9c2.1,2.1,3.8,4.5,5,7.3s1.8,5.8,1.8,9s-0.6,6.3-1.8,9.1c-1.2,2.8-2.8,5.2-5,7.3c-2.1,2.1-4.6,3.7-7.5,4.9
		C190.6,140.9,187.5,141.4,184.1,141.4L184.1,141.4z M184.1,130.5c1.7,0,3.2-0.3,4.6-0.9c1.4-0.6,2.6-1.4,3.6-2.4
		c1-1.1,1.8-2.3,2.4-3.8s0.8-3.2,0.8-5s-0.5-4.6-1.5-6.4c-1-1.8-2.3-3.2-4.1-4.2c-1.7-1-3.7-1.5-5.9-1.5c-2.2,0-3.2,0.3-4.6,0.9
		c-1.4,0.6-2.6,1.4-3.7,2.4c-1,1.1-1.8,2.3-2.4,3.8c-0.6,1.5-0.8,3.2-0.8,5s0.5,4.6,1.5,6.4c1,1.8,2.3,3.2,4.1,4.2
		c1.7,1,3.7,1.5,5.9,1.5H184.1z"/>
	<path class="st1" d="M212.9,140.5V96.4h11.6v33.5h17.2v10.6H212.9L212.9,140.5z"/>
</g>
<g>
	<path class="st1" d="M110,169.6c-0.9,0-1.7-0.1-2.5-0.4s-1.5-0.6-2-1.1l0.8-1.4c0.5,0.4,1,0.8,1.7,1c0.6,0.2,1.3,0.4,2,0.4
		s1.6-0.2,2.1-0.5c0.5-0.3,0.8-0.8,0.8-1.4c0-0.6-0.2-1-0.6-1.3c-0.4-0.3-1.2-0.6-2.4-0.9c-1.4-0.3-2.4-0.8-3-1.3s-0.9-1.3-0.9-2.2
		s0.2-1.2,0.5-1.8c0.4-0.5,0.9-0.9,1.5-1.2c0.6-0.3,1.4-0.4,2.2-0.4s1.6,0.1,2.3,0.4c0.7,0.2,1.3,0.6,1.9,1l-0.8,1.4
		c-0.3-0.3-0.6-0.5-1-0.7c-0.4-0.2-0.8-0.3-1.2-0.5c-0.4-0.2-0.9-0.2-1.3-0.2c-0.8,0-1.4,0.2-1.9,0.5c-0.5,0.3-0.7,0.8-0.7,1.3
		s0.2,1,0.7,1.3c0.5,0.3,1.2,0.5,2.3,0.8c1.4,0.3,2.4,0.8,3,1.3s0.9,1.3,0.9,2.2s-0.2,1.3-0.6,1.9c-0.4,0.5-0.9,0.9-1.6,1.2
		c-0.7,0.3-1.5,0.4-2.4,0.4L110,169.6z"/>
	<path class="st1" d="M118.1,169.2v-11.6h1.8v1.7c0.3-0.5,0.7-0.9,1.2-1.2c0.4-0.3,0.9-0.5,1.3-0.7c0.5-0.1,0.9-0.2,1.4-0.2
		c1,0,1.9,0.2,2.5,0.7s1.1,1,1.4,1.6c0.7-0.9,1.4-1.5,2.1-1.8c0.8-0.3,1.5-0.5,2.2-0.5c1,0,1.9,0.2,2.5,0.6s1.1,1,1.4,1.6
		c0.3,0.7,0.4,1.3,0.4,2v7.8h-1.8V162c0-0.9-0.3-1.7-0.8-2.2c-0.5-0.6-1.3-0.9-2.2-0.9s-1.2,0.1-1.8,0.4c-0.5,0.3-0.9,0.7-1.2,1.2
		c-0.3,0.5-0.5,1.1-0.5,1.8v6.9h-1.8V162c0-0.9-0.3-1.7-0.8-2.2c-0.5-0.6-1.3-0.9-2.2-0.9s-1.2,0.1-1.8,0.4s-0.9,0.7-1.3,1.2
		c-0.3,0.5-0.5,1.1-0.5,1.8v6.9h-1.8L118.1,169.2z"/>
	<path class="st1" d="M141.5,155.2c-0.4,0-0.7-0.1-0.9-0.4c-0.2-0.3-0.4-0.6-0.4-0.9s0.1-0.7,0.4-0.9c0.3-0.2,0.6-0.4,0.9-0.4
		s0.7,0.1,0.9,0.4c0.3,0.2,0.4,0.6,0.4,0.9s-0.1,0.7-0.4,0.9C142.1,155,141.8,155.2,141.5,155.2z M140.6,169.2v-11.6h1.8v11.6H140.6
		z"/>
	<path class="st1" d="M146.7,169.2v-17.3h1.8v17.3H146.7z"/>
	<path class="st1" d="M158,169.6c-1.2,0-2.3-0.3-3.2-0.8s-1.7-1.2-2.2-2.2s-0.8-2-0.8-3.2c0-1.2,0.1-1.7,0.5-2.5
		c0.3-0.8,0.7-1.4,1.3-2s1.2-1,1.9-1.3c0.7-0.3,1.5-0.5,2.4-0.5s1.7,0.2,2.5,0.5c0.8,0.3,1.3,0.8,1.8,1.4c0.5,0.6,0.8,1.3,1,2.1
		c0.2,0.8,0.3,1.6,0.2,2.5h-9.7c0,0.9,0.1,1.6,0.5,2.3c0.4,0.6,0.9,1.1,1.6,1.5c0.7,0.4,1.5,0.5,2.5,0.5s1.3-0.1,1.9-0.3
		c0.6-0.2,1.2-0.5,1.6-0.9l0.9,1.4c-0.4,0.3-0.8,0.6-1.4,0.8c-0.5,0.2-1,0.4-1.6,0.5c-0.5,0.1-1.1,0.2-1.6,0.2H158z M153.6,162.2
		h7.8c0-1.1-0.4-1.9-1-2.5s-1.5-0.9-2.7-0.9c-1.2,0-2.1,0.3-2.8,0.9C154.2,160.3,153.7,161.2,153.6,162.2z"/>
	<path class="st1" d="M176.6,169.6c-0.9,0-1.7-0.1-2.5-0.4c-0.8-0.3-1.5-0.6-2-1.1l0.8-1.4c0.5,0.4,1,0.8,1.7,1
		c0.6,0.2,1.3,0.4,2,0.4c0.7,0,1.6-0.2,2.1-0.5c0.5-0.3,0.8-0.8,0.8-1.4c0-0.6-0.2-1-0.6-1.3c-0.4-0.3-1.2-0.6-2.4-0.9
		c-1.4-0.3-2.4-0.8-3-1.3s-0.9-1.3-0.9-2.2s0.2-1.2,0.5-1.8c0.4-0.5,0.9-0.9,1.5-1.2c0.6-0.3,1.4-0.4,2.2-0.4c0.8,0,1.6,0.1,2.3,0.4
		c0.7,0.2,1.3,0.6,1.9,1l-0.8,1.4c-0.3-0.3-0.6-0.5-1-0.7c-0.4-0.2-0.8-0.3-1.2-0.5c-0.4-0.2-0.9-0.2-1.3-0.2
		c-0.8,0-1.4,0.2-1.9,0.5c-0.5,0.3-0.7,0.8-0.7,1.3s0.2,1,0.7,1.3c0.5,0.3,1.2,0.5,2.3,0.8c1.4,0.3,2.4,0.8,3,1.3s0.9,1.3,0.9,2.2
		s-0.2,1.3-0.6,1.9c-0.4,0.5-0.9,0.9-1.6,1.2c-0.7,0.3-1.5,0.4-2.4,0.4L176.6,169.6z"/>
	<path class="st1" d="M183.3,159.1v-1.6h3.1v1.6H183.3z M189.5,169.6c-1,0-1.9-0.3-2.5-0.9s-1-1.6-1-2.9v-11.7h1.8v3.4h3.6v1.6h-3.6
		v6.2c0,1,0.2,1.6,0.5,2c0.3,0.4,0.8,0.6,1.5,0.6s0.6,0,0.8,0s0.5-0.1,0.7-0.2l0.4,1.5c-0.3,0.2-0.7,0.3-1.1,0.4
		c-0.4,0-0.8,0.1-1.2,0.1L189.5,169.6z"/>
	<path class="st1" d="M199.6,169.6c-1,0-1.9-0.2-2.5-0.6c-0.6-0.4-1.2-1-1.5-1.6c-0.3-0.7-0.5-1.3-0.5-2v-7.7h1.8v7.3
		c0,0.9,0.3,1.6,0.9,2.2s1.3,0.8,2.3,0.8s1.2-0.1,1.7-0.4s0.9-0.7,1.2-1.2c0.3-0.5,0.5-1.1,0.5-1.8v-6.8h1.8v11.6h-1.7v-1.5
		c-0.5,0.6-1.1,1.1-1.8,1.4s-1.4,0.4-2.1,0.4L199.6,169.6z"/>
	<path class="st1" d="M214.3,169.6c-1.2,0-2.2-0.3-3.1-0.8c-0.9-0.6-1.6-1.3-2.1-2.2s-0.7-2-0.7-3.1s0.1-1.6,0.4-2.4s0.7-1.4,1.2-2
		s1.1-1,1.9-1.3c0.7-0.3,1.5-0.5,2.4-0.5s2.2,0.2,3,0.7s1.5,1.1,2,1.9l-0.3,0.4V152h1.8v17.3h-1.7v-2.7l0.3,0.4
		c-0.5,0.7-1.1,1.4-1.9,1.9S215.7,169.7,214.3,169.6L214.3,169.6z M214.6,167.9c0.8,0,1.6-0.2,2.3-0.6c0.7-0.4,1.2-0.9,1.5-1.6
		c0.4-0.7,0.6-1.5,0.6-2.4s-0.2-1.7-0.6-2.4c-0.4-0.7-0.9-1.2-1.5-1.6c-0.7-0.4-1.4-0.6-2.3-0.6s-1.6,0.2-2.2,0.6
		c-0.7,0.4-1.2,0.9-1.5,1.6s-0.6,1.5-0.6,2.4s0.2,1.7,0.6,2.4c0.4,0.7,0.9,1.2,1.5,1.6C213.1,167.7,213.8,167.9,214.6,167.9z"/>
	<path class="st1" d="M225.9,155.2c-0.4,0-0.7-0.1-0.9-0.4s-0.4-0.6-0.4-0.9s0.1-0.7,0.4-0.9c0.3-0.2,0.6-0.4,0.9-0.4
		s0.7,0.1,0.9,0.4c0.3,0.2,0.4,0.6,0.4,0.9s-0.1,0.7-0.4,0.9C226.5,155,226.2,155.2,225.9,155.2z M225,169.2v-11.6h1.8v11.6H225z"/>
	<path class="st1" d="M236.3,169.6c-1.2,0-2.2-0.3-3.2-0.8c-0.9-0.6-1.7-1.3-2.2-2.2s-0.8-2-0.8-3.1s0.2-1.6,0.5-2.4
		c0.3-0.7,0.7-1.4,1.3-2c0.6-0.6,1.2-1,2-1.3c0.8-0.3,1.6-0.5,2.5-0.5s2.3,0.3,3.2,0.8c0.9,0.6,1.7,1.3,2.2,2.2s0.8,2,0.8,3.1
		s-0.2,1.6-0.5,2.4c-0.3,0.7-0.7,1.4-1.3,2c-0.6,0.6-1.2,1-2,1.3C238,169.4,237.2,169.6,236.3,169.6z M236.3,167.9
		c0.8,0,1.6-0.2,2.3-0.6c0.7-0.4,1.2-0.9,1.5-1.6c0.4-0.7,0.6-1.5,0.6-2.4s-0.2-1.7-0.6-2.4c-0.4-0.7-0.9-1.2-1.5-1.6
		c-0.7-0.4-1.4-0.6-2.3-0.6s-1.6,0.2-2.3,0.6c-0.7,0.4-1.2,0.9-1.5,1.6s-0.6,1.5-0.6,2.4s0.2,1.7,0.6,2.4c0.4,0.7,0.9,1.2,1.5,1.6
		C234.7,167.7,235.4,167.9,236.3,167.9L236.3,167.9z"/>
</g>
<g>
	<path class="st1" d="M99.5,74.4c8.8,0,16.6-0.9,23.4-2.8c6.9-1.9,12.7-4.5,17.4-7.8c4.7-3.3,8.3-7.2,10.8-11.7s3.7-9.5,3.7-14.9
		s-1.3-10.2-3.9-14.8c-2.6-4.6-6.2-8.5-10.9-11.8c-4.7-3.3-10.5-5.9-17.4-7.8C115.7,0.9,108,0,99.4,0l0,0C93,0,87.8,5,87.8,11.2
		v63.3L99.5,74.4L99.5,74.4z"/>
	<path class="st2" d="M127.5,40c0.4,1,0.3,0.9,0.8,0c2.7-6.6-1.9-14.8-9-16.4c-2.4-0.6-5-0.4-7.2,0.8c1,0.4,2.1,0.8,3.1,1.3
		c2.6,1.2,4.9,2.9,6.7,4.9C111.8,38,100.2,42.9,88,45.5v10.3c1.7-0.5,3.4-1.1,5.1-1.8c11.8-4.6,22.8-12.1,29.5-22.7
		c1.9,2.3,3.4,5.1,4.6,7.9L127.5,40L127.5,40z"/>
</g>
</svg>
