<svg width="42" height="66" viewBox="0 0 42 66" fill="none" xmlns="http://www.w3.org/2000/svg">
<g clip-path="url(#clip0_331_867)">
<path d="M30.9082 50.3821C31.3068 49.6862 32.1721 49.3907 32.916 49.7308H32.917L33.5234 50.0228C34.9055 50.7239 36.0546 51.5513 36.8906 52.4739H36.8896C37.9265 53.6163 38.5127 54.9195 38.5127 56.3284C38.5127 59.0882 36.2641 61.4174 32.7959 62.9798L32.79 62.9818L32.7148 63.014L32.7139 63.013C29.5629 64.4153 25.2832 65.2776 20.6104 65.2776C16.1906 65.2776 12.1248 64.5078 9.03027 63.2396L8.42383 62.9798C4.95569 61.4174 2.70703 59.0882 2.70703 56.3284C2.70704 55.0076 3.22287 53.7803 4.1416 52.6907L4.33008 52.4739C5.28812 51.417 6.64997 50.4901 8.30371 49.7308L8.4541 49.6712C9.21112 49.4147 10.0507 49.7754 10.3848 50.5267H10.3857C10.7186 51.2738 10.4338 52.1492 9.74219 52.554L9.59863 52.6282C8.46877 53.1462 7.55743 53.7335 6.9082 54.3558L6.64648 54.6243C6.1207 55.202 5.85743 55.7796 5.85742 56.3284C5.85742 56.9638 6.19174 57.6201 6.85547 58.2679C7.51813 58.9146 8.48867 59.5317 9.70605 60.0804L10.2344 60.3069C12.9374 61.412 16.5762 62.0931 20.6104 62.0931C24.881 62.093 28.707 61.3318 31.4502 60.1126L31.5117 60.0843L31.5146 60.0833L31.959 59.8743C32.9695 59.3798 33.7853 58.8361 34.3652 58.2698C35.0289 57.6217 35.3632 56.9653 35.3633 56.3314C35.3633 55.8515 35.1596 55.3495 34.7578 54.8441L34.5742 54.6273C33.9187 53.9056 32.913 53.2231 31.6221 52.6312L31.4941 52.5726L31.4922 52.5609C30.7934 52.1598 30.4997 51.2792 30.835 50.5267L30.9082 50.3821ZM20.6104 0.909485C26.2006 0.909524 31.2692 3.20917 34.9346 6.92218L35.2744 7.27472C38.7445 10.9568 40.874 15.9454 40.874 21.4329C40.874 25.4466 39.0243 30.4974 36.3984 35.6487L35.8633 36.68C31.8868 44.2139 26.3404 51.9621 22.5723 56.8665L21.8428 57.8079C21.3073 58.4968 20.3181 58.6161 19.6367 58.0696H19.6357C19.5834 58.0275 19.5351 57.9831 19.4902 57.9368L19.3652 57.7923C15.7291 53.1276 9.96815 45.2189 5.76074 37.4329L5.3584 36.68C2.45502 31.1781 0.34781 25.7149 0.347656 21.4339C0.347656 15.7739 2.61601 10.6401 6.28125 6.92706L6.62891 6.58331C10.2639 3.06766 15.1901 0.909485 20.6104 0.909485ZM20.6104 4.09406C16.0328 4.09406 11.8757 5.91456 8.80469 8.87823L8.51074 9.16925C5.41383 12.304 3.5 16.6409 3.5 21.431C3.50014 25.1001 5.41634 30.0435 8.12988 35.1849H8.12891C11.8253 42.1856 16.9379 49.4094 20.6104 54.2386C24.2825 49.4093 29.3956 42.1856 33.0918 35.1849L33.5908 34.2239C36.0372 29.4327 37.7207 24.8699 37.7207 21.4329C37.7206 16.6429 35.8046 12.3086 32.71 9.1712L32.6523 9.11359L32.6514 9.11163C29.5615 6.011 25.3065 4.09409 20.6104 4.09406ZM20.6104 11.9603C23.1934 11.9603 25.5316 13.0223 27.2246 14.7347L27.5342 15.0638C29.0421 16.7448 29.9619 18.9809 29.9619 21.431C29.9618 23.8764 29.0417 26.1069 27.5342 27.7913L27.2246 28.1214L27.2168 28.1292C25.5238 29.8416 23.1857 30.9036 20.6104 30.9036C18.1888 30.9036 15.9826 29.9702 14.3213 28.4427L13.9961 28.1292C12.3054 26.4166 11.2578 24.0464 11.2578 21.4329C11.2579 18.8195 12.3057 16.453 13.9961 14.7405L14.3203 14.4271C15.9227 12.9518 18.0369 12.0328 20.3604 11.971V11.9603H20.6104ZM20.6074 15.1468C19.0039 15.1469 17.54 15.7646 16.4385 16.7786L16.2227 16.9866C15.1003 18.1237 14.4064 19.6945 14.4062 21.43C14.4062 23.1659 15.1001 24.7402 16.2227 25.8773L16.4385 26.0853C17.5398 27.0992 19.0016 27.716 20.6074 27.7161C22.3234 27.7161 23.8726 27.0163 24.9922 25.8821L25.1982 25.6634C26.1992 24.5473 26.8096 23.0622 26.8096 21.43C26.8095 19.7246 26.1378 18.1772 25.0498 17.0452L24.9922 16.9866C23.8697 15.8497 22.3205 15.1468 20.6074 15.1468Z" fill="#D1E2AC" stroke="#D1E2AC" stroke-width="0.5"/>
</g>
<defs>
<clipPath id="clip0_331_867">
<rect width="41.3636" height="65" fill="white" transform="translate(0.0664062 0.901489)"/>
</clipPath>
</defs>
</svg>
