<svg width="86" height="61" viewBox="0 0 86 61" fill="none" xmlns="http://www.w3.org/2000/svg">
<path d="M85.6762 27.0082C85.7499 26.3745 85.5767 25.7482 85.1825 25.2471L66.0574 0.956184C65.2727 -0.045955 63.6958 -0.230159 62.6973 0.554594L23.3889 31.5063C22.8879 31.9005 22.571 32.4679 22.4936 33.1016C22.4199 33.7353 22.5931 34.3616 22.9873 34.8627L42.1124 59.1537C42.5693 59.7321 43.2545 60.0674 43.9914 60.0674C44.5257 60.0674 45.0525 59.8868 45.4688 59.5553L84.781 28.6035C85.2858 28.2093 85.6025 27.642 85.6762 27.0082ZM44.0655 57.0611L25.4818 33.4596L64.1007 3.05308L82.6844 26.6545L44.0655 57.0611Z" fill="#132035"/>
<path d="M61.0613 9.18285C60.6412 8.6523 59.8712 8.56019 59.3407 8.97652L32.3673 30.2172C31.8368 30.6372 31.7447 31.4072 32.161 31.9377C32.6989 32.6193 32.9384 33.4704 32.8352 34.3326C32.7321 35.1947 32.301 35.9648 31.6194 36.5027C31.3652 36.7053 31.1994 36.9964 31.1588 37.3206C31.122 37.6448 31.2141 37.969 31.4131 38.2233L40.8266 50.1754C41.0292 50.4296 41.3203 50.5954 41.6445 50.6322C41.965 50.6691 42.2929 50.577 42.5472 50.378C43.1256 49.9211 43.8183 49.6817 44.5551 49.6817C45.5572 49.6817 46.4931 50.1348 47.112 50.9196C47.3552 51.2254 47.7125 51.3875 48.0773 51.3875C48.3425 51.3875 48.6078 51.3028 48.8362 51.1259L75.8096 29.8891C76.3401 29.469 76.4322 28.699 76.0159 28.1685C74.9069 26.7611 75.1501 24.7126 76.5575 23.6036C77.0881 23.1836 77.1802 22.4136 76.7638 21.8831L67.3503 9.93097C67.1477 9.67676 66.8566 9.51096 66.5324 9.47412C66.2082 9.43359 65.884 9.5257 65.6297 9.72834C65.0513 10.1852 64.3586 10.4247 63.6218 10.4247C62.6123 10.4247 61.6802 9.97129 61.0613 9.18285ZM66.0977 12.3108L74.1554 22.5463C72.7516 24.2559 72.4679 26.6544 73.4296 28.6439L48.1775 48.5282C47.168 47.6955 45.9006 47.235 44.5559 47.235C43.6827 47.235 42.8427 47.4266 42.0763 47.8024L34.0187 37.5669C34.7076 36.7342 35.1387 35.7211 35.2713 34.6231C35.4039 33.5251 35.216 32.4383 34.7444 31.4656L59.9965 11.5812C61.006 12.4139 62.2734 12.8745 63.6181 12.8745C64.4913 12.8745 65.3277 12.683 66.0977 12.3108Z" fill="#132035"/>
<path d="M59.7461 30.1028L59.374 29.6312C58.7108 28.7875 57.7566 28.2496 56.6881 28.1242C55.6233 27.999 54.5696 28.2937 53.7259 28.9569L53.1069 29.4432C52.7201 29.749 52.2337 29.889 51.7437 29.8264C51.2537 29.7674 50.8116 29.5206 50.5058 29.13L50.1337 28.6585C49.5 27.8553 49.64 26.6874 50.4432 26.0536L51.0621 25.5673C51.449 25.2615 51.9316 25.1215 52.4253 25.1841C52.9153 25.2431 53.3575 25.4899 53.6633 25.8768L53.8659 26.131C54.2343 26.6026 54.9159 26.6837 55.3875 26.3116C55.8591 25.9394 55.9402 25.2615 55.5681 24.7899L55.3654 24.5357C54.7023 23.692 53.7481 23.1541 52.6795 23.0288C51.8505 22.9293 51.0253 23.0951 50.3031 23.4856L49.78 22.8224C49.4115 22.3508 48.7299 22.2698 48.2583 22.6419C47.7867 23.014 47.7057 23.6956 48.0778 24.1636L48.601 24.8267C47.3188 26.2562 47.2009 28.4374 48.4278 29.9996L48.7999 30.4712C49.4631 31.3149 50.4173 31.8527 51.4858 31.9781C52.5506 32.107 53.6043 31.8086 54.448 31.1454L55.067 30.6591C55.4538 30.3533 55.9365 30.2133 56.4302 30.2759C56.9202 30.3349 57.3623 30.5817 57.6681 30.9686L58.0402 31.4402C58.6739 32.2434 58.5339 33.4113 57.7307 34.045L57.1118 34.5313C56.7249 34.8371 56.2386 34.9771 55.7486 34.9145C55.2586 34.8555 54.8164 34.6087 54.5106 34.2218C54.1422 33.7502 53.4606 33.6692 52.989 34.0413C52.5174 34.4134 52.4363 35.0914 52.8085 35.5629C53.4716 36.4067 54.4258 36.9445 55.4944 37.0699C55.6565 37.0883 55.8186 37.0994 55.977 37.0994C56.6439 37.0994 57.296 36.9336 57.8781 36.6167L58.3976 37.2762C58.6113 37.5488 58.9282 37.6888 59.2487 37.6888C59.4845 37.6888 59.7203 37.6115 59.9192 37.4567C60.3908 37.0846 60.4719 36.4067 60.0998 35.9351L59.5729 35.2682C60.8551 33.8461 60.973 31.6613 59.7461 30.1028Z" fill="#132035"/>
<path d="M19.0822 34.2062C19.7601 34.2062 20.3091 33.6573 20.3091 32.9793C20.3091 32.3014 19.7601 31.7524 19.0822 31.7524H10.8182C10.1403 31.7524 9.59131 32.3014 9.59131 32.9793C9.59131 33.6573 10.1403 34.2062 10.8182 34.2062H19.0822Z" fill="#132035"/>
<path d="M24.8221 42.604H14.0858C13.4079 42.604 12.8589 43.153 12.8589 43.8309C12.8589 44.5088 13.4079 45.0578 14.0858 45.0578H24.8183C25.4963 45.0578 26.0452 44.5088 26.0452 43.8309C26.0489 43.153 25.5001 42.604 24.8221 42.604Z" fill="#132035"/>
<path d="M0.807617 38.4066C0.807617 39.0845 1.35658 39.6335 2.03452 39.6335H22.1801C22.858 39.6335 23.407 39.0845 23.407 38.4066C23.407 37.7287 22.858 37.1797 22.1801 37.1797H2.03452C1.3566 37.1797 0.807617 37.7287 0.807617 38.4066Z" fill="#132035"/>
</svg>
