<svg width="91" height="78" viewBox="0 0 91 78" fill="none" xmlns="http://www.w3.org/2000/svg">
<path d="M77.349 41.7291C77.349 41.9556 77.2591 42.1705 77.099 42.3306C76.9427 42.4908 76.724 42.5806 76.4974 42.5806H73.9076C73.6771 42.5885 73.4545 42.4986 73.2904 42.3385C73.1264 42.1783 73.0326 41.9595 73.0326 41.7291C73.0326 41.4986 73.1264 41.2799 73.2904 41.1197C73.4545 40.9595 73.6771 40.8736 73.9076 40.8814H76.4974C76.724 40.8814 76.9427 40.9713 77.099 41.1275C77.2591 41.2877 77.349 41.5025 77.349 41.7291ZM74.8842 7.22908H77.474C77.9427 7.22908 78.3255 6.85017 78.3255 6.38142C78.3255 5.91267 77.9427 5.52986 77.474 5.52986H74.8842C74.4154 5.52986 74.0326 5.91267 74.0326 6.38142C74.0326 6.85017 74.4154 7.22908 74.8842 7.22908ZM89.9622 18.6981C89.8762 19.0575 89.4661 20.1356 87.5716 20.3856L86.095 20.3895V23.4247C86.1692 23.4091 86.2395 23.3973 86.3059 23.3934C88.2004 22.9677 88.8332 23.7958 88.9387 23.9677H88.9348C89.009 24.077 89.0481 24.2059 89.052 24.3387L89.1926 27.577V27.5731C89.1965 27.6708 89.1809 27.7724 89.1457 27.8622C88.9621 28.4755 88.4504 28.9286 87.8215 29.0341C87.5247 29.0849 87.2278 29.1083 86.9309 29.1083C86.6497 29.1083 86.3684 29.0771 86.095 29.0185V29.4599C87.7005 30.3036 87.5677 33.5419 87.5208 34.2177H87.5169C87.4973 34.5263 87.2864 34.7919 86.9856 34.8817C86.6926 34.9716 86.3958 35.0341 86.095 35.0771V35.245C86.5364 35.5692 87.0911 35.9911 87.0911 35.9911C87.1848 36.0653 87.263 36.1591 87.3138 36.2685C87.8919 37.1395 87.6809 38.3154 86.8372 38.9365C86.7942 38.9599 86.7513 38.9833 86.7044 38.999L86.095 39.2177V41.9325C86.0911 43.5067 84.8177 44.7802 83.2434 44.7802H79.6731C78.5442 47.5185 74.5989 49.8505 73.2083 50.6044L73.6575 64.5694V64.5655C73.6653 64.7686 73.5872 64.9678 73.4466 65.1124C73.306 65.2608 73.1106 65.3428 72.9075 65.3428H56.6965C56.4934 65.3428 56.2981 65.2608 56.1575 65.1163C56.0168 64.9718 55.9387 64.7765 55.9465 64.5772L56.6536 31.7022L56.6496 31.6983C56.6496 31.6632 56.6536 31.628 56.6614 31.5929L58.5598 20.3119V20.3079C58.5676 20.2572 58.5832 20.2103 58.6027 20.1634L60.423 15.4681C60.6926 14.0267 60.7551 12.554 60.6183 11.0931C60.5793 10.9291 60.5949 10.7611 60.6613 10.6126C60.8761 10.1517 61.2785 9.80796 61.7629 9.65953C62.2864 9.54234 62.8332 9.65953 63.2629 9.97984C63.6418 10.0853 63.9973 10.2572 64.3137 10.4876V6.55015C64.3137 4.97985 65.591 3.70635 67.1614 3.70245H83.2434C84.8176 3.70636 86.0911 4.97975 86.095 6.55015V14.7299L89.1028 16.0111H89.0989C90.0325 16.554 90.4075 17.7137 89.9622 18.6981ZM84.5911 33.3741C85.0208 33.6514 85.552 33.7217 86.0403 33.5694C86.0481 32.3546 85.8215 31.0694 85.4387 30.8077H85.4426C84.8918 30.8741 84.4817 31.3468 84.4934 31.8975C84.4075 32.3897 84.4387 32.8975 84.5911 33.3741ZM66.0131 28.8194C67.4936 31.9561 68.349 35.3467 68.5365 38.8038H84.3955V34.9405C83.9853 34.8116 83.622 34.5616 83.3486 34.2335C83.329 34.2022 83.3095 34.171 83.29 34.1358C82.9619 33.3624 82.8642 32.5108 83.0126 31.6866C83.0634 30.7882 83.5908 29.9874 84.3954 29.585V28.0342C84.2314 27.8389 84.1064 27.6162 84.0204 27.374C83.6962 26.5889 83.7118 25.7021 84.0673 24.9248C84.1611 24.7608 84.2704 24.6045 84.3954 24.46V6.55C84.3915 5.91719 83.8798 5.4016 83.2431 5.4016H67.1611C66.5283 5.4055 66.0127 5.91722 66.0127 6.55V13.6477C66.1182 14.468 66.1182 15.3 66.0127 16.1204L66.0131 28.8194ZM78.0601 44.6784H67.4081C67.119 45.2839 66.7713 45.8581 66.369 46.3932C66.2518 46.5572 66.076 46.6705 65.8729 46.7018C65.6737 46.733 65.4705 46.6822 65.3065 46.5611C65.1463 46.4401 65.0408 46.2565 65.0135 46.0572C64.9901 45.8541 65.0447 45.651 65.1697 45.4947C69.7517 39.3853 64.4158 28.9557 64.3612 28.8497C64.3104 28.7521 64.283 28.6466 64.2791 28.5333C64.1424 25.2833 63.908 20.0216 63.8338 19.295H63.8299C63.7908 19.1466 63.7948 18.9864 63.8494 18.838C63.8533 18.8263 63.8573 18.8146 63.8612 18.8028C63.9901 18.4903 64.2596 17.4161 64.3963 16.8145C64.8651 14.2286 64.4119 12.8926 63.951 12.2286L63.9549 12.2325C63.701 11.8302 63.3026 11.5411 62.8416 11.42C62.7205 11.4005 62.6072 11.3536 62.5096 11.2794C62.3026 11.1232 62.1815 11.1036 62.1463 11.1075V11.1115C62.2518 12.674 62.1658 14.2481 61.8885 15.7911C61.8807 15.8419 61.869 15.8888 61.8494 15.9357L60.0291 20.631L58.1502 31.787L57.4627 63.842H72.1347L71.6972 50.182H71.6933C71.6855 49.889 71.8457 49.6195 72.1035 49.4867C73.4824 48.7875 76.8648 46.737 78.0601 44.6784ZM84.396 41.9323V40.5026H68.478C68.4077 41.3776 68.2553 42.2409 68.0131 43.0807H83.2431C83.8798 43.0807 84.3921 42.5651 84.396 41.9323ZM86.0288 37.0651L85.9975 37.0416L85.9936 37.6588L86.0835 37.6276C86.1381 37.4401 86.1186 37.2409 86.0249 37.0651L86.0288 37.0651ZM85.3921 25.6241C85.2514 26.003 85.2553 26.4171 85.4038 26.7921C85.4233 26.8311 85.4389 26.8741 85.4506 26.9132C85.478 26.9913 85.8061 27.8351 87.6225 27.546V27.5499C87.646 27.5225 87.6655 27.4913 87.685 27.464L87.5679 24.7999L87.5718 24.7959C87.2397 24.753 86.9038 24.7764 86.5835 24.8663C86.5444 24.878 86.5014 24.8819 86.4585 24.8858C86.0054 24.9522 85.6108 25.2256 85.3921 25.6241ZM88.4389 17.3546L85.9976 16.3194V18.8975H87.4781C88.1734 18.7998 88.4663 18.499 88.5092 18.3545L88.5053 18.3506C88.5092 18.3155 88.5171 18.2842 88.5327 18.253C88.7514 17.6162 88.5132 17.4053 88.435 17.3545L88.4389 17.3546ZM20.1499 40.6946H16.8765C16.6461 40.6907 16.4234 40.7766 16.2594 40.9368C16.0953 41.0969 16.0015 41.3157 16.0015 41.5462C16.0015 41.7766 16.0953 41.9954 16.2594 42.1555C16.4234 42.3157 16.6461 42.4016 16.8765 42.3938H20.1499C20.3804 42.4016 20.6031 42.3157 20.7671 42.1555C20.9312 41.9954 21.0249 41.7766 21.0249 41.5462C21.0249 41.3157 20.9312 41.0969 20.7671 40.9368C20.6031 40.7766 20.3804 40.6907 20.1499 40.6946ZM38.701 38.093L38.7049 38.0969C37.5291 41.5188 36.5526 45.0031 35.783 48.5379H35.9001C36.3142 48.5418 36.6423 48.8777 36.6423 49.2879V51.7527C37.2439 51.8933 37.8415 52.0496 38.4275 52.2253H38.4314C38.7479 52.3191 38.9666 52.6121 38.9666 52.9441V64.5921C38.9666 65.0062 38.6307 65.3421 38.2166 65.3421H12.9436C12.7405 65.3421 12.5452 65.2601 12.4045 65.1155C12.2639 64.971 12.1858 64.7757 12.1936 64.5765L12.4397 52.3735V52.3696C12.4475 52.018 12.7014 51.7133 13.0491 51.6508C13.1233 51.6352 13.4202 51.5844 13.8928 51.5063L13.8967 49.0727C13.8967 48.893 13.967 48.7211 14.0842 48.5883C13.1584 47.5805 12.4084 46.4281 11.8694 45.1742H8.35383C6.49053 45.1703 4.98273 43.6625 4.97883 41.7992V40.9398C4.9632 40.9281 4.93977 40.9281 4.92414 40.9125L1.92024 38.6078C1.88899 38.5844 1.85774 38.557 1.8304 38.5258C1.04915 37.7054 0.974927 36.4399 1.65462 35.5336C1.67805 35.5023 1.7054 35.475 1.73274 35.4476L3.17024 34.0453C2.59602 33.6234 2.08044 33.1234 1.63904 32.5687L1.64685 32.5609H1.64295C1.53748 32.4867 1.45545 32.389 1.39686 32.2757C0.678108 31.0335 0.705448 29.4945 1.46717 28.2757C1.49061 28.2445 1.51405 28.2132 1.5453 28.1859L2.6469 27.1078L0.826596 25.2875C0.760189 25.2172 0.705506 25.1391 0.666436 25.0531C0.326596 24.1508 0.260186 23.1703 0.471126 22.2328L0.478938 22.2055C1.02972 20.0219 2.77974 18.3461 4.97894 17.8813V16.975L3.31094 16.7407C2.51016 16.518 1.81484 16.0102 1.36174 15.311C0.943768 14.6742 0.725018 13.9282 0.736738 13.1665V12.7407C0.725019 11.5063 1.34612 10.3501 2.38514 9.67427C2.86561 9.35396 3.43984 9.19771 4.02184 9.23286H4.98278L4.97887 3.45166C4.98278 1.59226 6.49057 0.0805602 8.35387 0.0766602H28.6739C30.5372 0.0805662 32.045 1.59226 32.0489 3.45166V4.60006C32.6582 3.49066 33.5958 2.60006 34.7364 2.05316C36.045 1.27972 37.7091 1.50628 38.7676 2.59613C38.8887 2.74847 38.9473 2.94379 38.9238 3.1391L38.373 8.4125L38.3574 17.6625L39.2949 30.1035C39.2988 30.1387 39.2988 30.1738 39.2949 30.2129L38.7519 37.8731L38.7559 37.8692C38.748 37.9473 38.7324 38.0215 38.7051 38.0957L38.701 38.093ZM15.6539 3.23798C15.6539 3.34345 15.8493 3.34345 15.8493 3.23798C15.8493 3.1833 15.8063 3.14033 15.7516 3.14033C15.6969 3.14033 15.6539 3.1833 15.6539 3.23798ZM6.67735 3.45282L6.68126 20.3478C10.4899 22.7931 9.90396 27.4142 9.87266 27.6173C9.84922 27.7736 9.77891 27.922 9.66954 28.0353L8.68516 29.0587L10.1188 30.2306V30.2345C11.0563 30.8986 11.5094 32.0626 11.2594 33.1837C11.0562 34.4337 10.3336 35.5353 9.26716 36.211C9.1695 36.2696 9.06404 36.3048 8.95075 36.3165C8.77106 36.336 8.59137 36.3438 8.41169 36.3438C8.12263 36.3438 7.83747 36.3243 7.55231 36.2891L7.78278 36.461C8.30622 36.836 8.63044 37.4298 8.65778 38.0743H26.4388C27.1927 34.3555 28.1849 30.6876 29.3997 27.0943C29.5872 26.5123 29.763 25.9615 29.802 25.8052V25.7896C30.009 24.2388 30.1887 22.9107 30.345 21.7701L30.3489 3.45408C30.345 2.5322 29.5989 1.78218 28.6731 1.78218H16.7941C17.1105 2.00874 17.3449 2.33687 17.4621 2.71187C17.6183 2.51265 17.8566 2.39156 18.1105 2.39156H21.3839C21.8527 2.39156 22.2355 2.77047 22.2355 3.23922C22.2355 3.71188 21.8527 4.09078 21.3839 4.09078H18.1105C17.8566 4.08688 17.6183 3.96969 17.4621 3.77047C17.2902 4.32125 16.8644 4.75875 16.3176 4.94237C15.7668 5.12596 15.1653 5.03221 14.6965 4.69628C14.2277 4.35644 13.9504 3.81347 13.9543 3.23538C13.9582 2.65725 14.2394 2.11428 14.7121 1.78228H8.35268C7.43081 1.78228 6.68078 2.53228 6.68078 3.45418L6.67735 3.45282ZM3.60705 15.2728L4.98595 15.4603L4.98985 10.7298H3.97425C3.94691 10.7298 3.91957 10.7259 3.89613 10.7259L3.89222 10.7298C3.63831 10.7298 3.38831 10.8079 3.17738 10.9486C2.57582 11.347 2.22426 12.0228 2.23597 12.7416V13.1674C2.22816 13.6283 2.35316 14.0814 2.60316 14.4721C2.84144 14.8431 3.193 15.1244 3.61096 15.2728L3.60705 15.2728ZM6.02895 28.3748H7.25945L8.40785 27.1834C8.64613 24.8787 7.54847 22.6404 5.57585 21.4217L5.486 21.3905C5.18131 21.2889 4.97429 21.0038 4.97429 20.6795V19.4412C3.47429 19.8631 2.31409 21.0545 1.93129 22.5662L1.92738 22.578H1.93129C1.80629 23.16 1.82973 23.7655 1.99379 24.3358L6.02895 28.3748ZM4.74775 33.3436L4.75556 33.3514L4.76728 33.3592H4.77509L6.37279 34.3124C6.61498 34.4413 6.87279 34.578 7.14623 34.7108C7.1892 34.7147 7.23608 34.7225 7.28295 34.7303L7.28686 34.7342C7.72436 34.8124 8.16967 34.8475 8.61496 34.8397C9.23605 34.3866 9.65406 33.7069 9.77906 32.9491C9.90797 32.3827 9.69703 31.7929 9.23218 31.4413L7.31418 29.8749H5.72438C5.52516 29.8749 5.33376 29.7929 5.19313 29.6523L3.70483 28.164L2.65013 29.2031C2.28685 29.9179 2.29466 30.7695 2.67357 31.4765C2.72825 31.5311 2.77122 31.5897 2.81029 31.6405L2.81419 31.6366C3.35716 32.3085 4.01335 32.8866 4.74775 33.3436ZM5.68916 39.617L5.69306 39.6131C6.06806 39.6756 6.45087 39.617 6.79076 39.4412C7.00951 39.2967 7.15405 39.0623 7.18921 38.8006C7.23217 38.4022 7.14233 37.8201 6.9978 37.7381C6.96655 37.7225 6.9392 37.703 6.91186 37.6834L5.38066 36.5232C5.1541 36.3513 5.04472 36.0701 5.0955 35.7888L5.17753 35.3396L4.44315 34.9021L2.83375 36.4724H2.82984C2.6189 36.7771 2.64625 37.1834 2.88844 37.4607L5.68916 39.617ZM8.35326 43.4764H26.2403C26.0137 42.2537 25.9981 40.9998 26.1856 39.7733H8.40857C8.22888 40.1561 7.94373 40.4804 7.59216 40.7147C7.31091 40.8866 7.00232 41.0038 6.682 41.0624V41.8007C6.682 42.7265 7.43136 43.4764 8.35326 43.4764ZM13.9275 53.0233L13.7087 63.8393L37.4667 63.8432V53.5112C28.2519 50.9643 16.6655 52.5819 13.9275 53.0233ZM35.1465 51.4335L35.1426 50.0312L15.3926 49.8281V51.2812C19.3301 50.75 27.5486 49.9726 35.1426 51.4335L35.1465 51.4335ZM37.7988 30.1635L36.8652 17.7185L36.8847 8.33572L37.4003 3.34352H37.3964C36.7753 3.03102 36.0409 3.04665 35.4316 3.38649C34.5332 3.80837 33.7949 4.51149 33.3222 5.38649C32.3418 7.16769 31.8691 9.18339 31.955 11.2146C32.0253 12.5818 32.2519 13.9373 32.6308 15.2537C32.6425 15.2693 32.6425 15.2928 32.6503 15.3084H32.6542C32.6855 15.3709 32.7089 15.4334 32.7246 15.5037C32.7285 15.5193 32.7324 15.5349 32.7324 15.5506H32.7363C32.748 15.5896 32.7558 15.6287 32.7597 15.6717C32.7597 15.7576 32.7441 15.8435 32.7167 15.9256C32.5761 16.6013 31.7832 22.3514 31.3026 25.9336H31.2987C31.1933 26.4843 31.0331 27.0274 30.83 27.5547C27.0292 39.3747 27.1933 42.9297 27.998 43.8277C28.1933 44.0464 28.2441 44.3628 28.123 44.6324C28.0019 44.9019 27.7324 45.0777 27.4394 45.0777H13.4784C14.0565 46.3941 14.994 47.5269 16.1815 48.3394L34.2475 48.523C35.0444 44.8433 36.0522 41.2144 37.267 37.652L37.7988 30.1635ZM14.2828 25.5697C16.4664 23.3119 16.4508 19.7259 14.2476 17.4877C13.9585 17.1908 13.482 17.1869 13.189 17.4799C12.8921 17.769 12.8882 18.2455 13.1812 18.5385C14.8062 20.2338 14.7945 22.9135 13.1499 24.5893C12.8765 24.9018 12.9117 25.3745 13.2242 25.6479C13.5367 25.9174 14.0093 25.8861 14.2828 25.5697ZM16.8805 28.1478C22.9235 21.1322 16.9078 14.8708 16.8453 14.8078V14.8117C16.5523 14.5266 16.0875 14.5266 15.7945 14.8117C15.5054 15.0969 15.4937 15.5656 15.775 15.8625C18.818 19.0227 18.8023 24.0266 15.7437 27.1715C15.6109 27.32 15.5445 27.5192 15.5562 27.7184C15.5718 27.9176 15.6656 28.1051 15.8179 28.234C15.9703 28.3668 16.1656 28.4293 16.3648 28.4137C16.564 28.3981 16.7515 28.3043 16.8804 28.152L16.8805 28.1478ZM19.525 30.7259C27.8648 21.0423 19.5757 12.4099 19.4898 12.3239V12.3278C19.2007 12.031 18.7242 12.0271 18.4312 12.3161C18.1343 12.6091 18.1304 13.0817 18.4195 13.3786C18.7242 13.6911 25.814 21.1247 18.3882 29.7496C18.2554 29.902 18.189 30.0973 18.2007 30.2965C18.2164 30.4996 18.3101 30.6832 18.4625 30.816C18.6148 30.9449 18.8101 31.0113 19.0093 30.9918C19.2085 30.9762 19.396 30.8824 19.525 30.7301L19.525 30.7259ZM72.353 27.1946C74.5366 24.9368 74.521 21.3469 72.3178 19.1087C72.0287 18.8118 71.5522 18.808 71.2553 19.1009C70.9623 19.39 70.9584 19.8665 71.2475 20.1595C72.8764 21.8548 72.8608 24.5345 71.2162 26.2103C70.9467 26.5228 70.9819 26.9994 71.2944 27.2689C71.6069 27.5424 72.0795 27.5071 72.353 27.1946ZM74.9507 29.7688C80.9937 22.7532 74.978 16.4918 74.9155 16.4288V16.4327C74.7749 16.2843 74.5835 16.2023 74.3843 16.1983C74.1811 16.1944 73.9858 16.2726 73.8413 16.4132C73.7007 16.5538 73.6186 16.7491 73.6186 16.9483C73.6186 17.1515 73.7007 17.3429 73.8452 17.4835C76.9038 20.6397 76.8882 25.6554 73.8139 28.7925C73.6811 28.9449 73.6147 29.1402 73.6264 29.3394C73.6421 29.5386 73.7358 29.7261 73.8882 29.855C74.0366 29.9878 74.2358 30.0503 74.435 30.0347C74.6343 30.0191 74.8218 29.9253 74.9507 29.773L74.9507 29.7688ZM77.5952 32.3469C85.935 22.6633 77.6459 14.0309 77.56 13.9449V13.9488C77.267 13.6676 76.8022 13.6676 76.5131 13.9527C76.2201 14.2379 76.2123 14.7027 76.4897 14.9996C76.7943 15.3121 83.8842 22.7496 76.4584 31.3706V31.3745C76.3217 31.523 76.2553 31.7222 76.2709 31.9214C76.2826 32.1206 76.3764 32.3081 76.5287 32.437C76.6811 32.5699 76.8803 32.6324 77.0795 32.6167C77.2787 32.6011 77.4662 32.5074 77.5951 32.3511L77.5952 32.3469Z" fill="#132035"/>
</svg>
