<svg width="60" height="62" viewBox="0 0 60 62" fill="none" xmlns="http://www.w3.org/2000/svg">
<g clip-path="url(#clip0_301_763)">
<path d="M55.9287 26.5522C57.6739 20.5503 55.7184 14.2958 50.736 10.4022C45.4642 6.28337 38.4924 6.06048 32.9719 9.8245C31.9885 10.4932 31.0029 11.205 30.0082 11.9237L29.4815 12.3035C28.3241 11.4688 27.1689 10.6296 25.9888 9.8245C20.4661 6.06048 13.4943 6.28564 8.22476 10.4022C3.24459 14.2958 1.2914 20.5503 3.03435 26.5522C1.37956 26.7774 0.0932617 28.1943 0.0932617 29.9251C0.0932617 31.8105 1.61467 33.3434 3.48421 33.3434H5.36506C5.36506 33.3434 13.9555 57.5924 13.9668 57.6196C16.042 63.4783 24.6573 62.9461 26.0295 56.9055L29.3752 41.2604C29.3752 41.2604 32.9312 56.8919 32.9357 56.9123C34.3125 62.9575 42.9368 63.4465 44.9962 57.6219L53.5979 33.3457H55.4788C57.3483 33.3457 58.8697 31.8128 58.8697 29.9273C58.8697 28.1943 57.5834 26.7774 55.9287 26.5522ZM9.61053 12.2035C14.0911 8.70098 20.023 8.50766 24.7229 11.7122C30.3677 15.5627 35.8294 20.4366 42.9345 20.9938C43.5426 21.0415 44.0988 20.5685 44.144 19.9407C44.1892 19.313 43.7212 18.7672 43.0996 18.7217C38.8315 18.4101 35.0562 16.1972 31.446 13.6909C32.3842 13.0131 33.3133 12.3445 34.2401 11.7099C38.9377 8.50767 44.8696 8.70098 49.3525 12.2012C52.8542 14.9372 55.7794 20.125 53.6047 26.5045H40.7847V23.0862C40.7847 22.4562 40.2783 21.9467 39.6544 21.9467H19.3086C18.6847 21.9467 18.1783 22.4562 18.1783 23.0862V26.5045H5.35828C3.18581 20.1272 6.10881 14.9395 9.61053 12.2035ZM38.524 28.7856H36.2634V26.5068C36.2634 25.8768 35.757 25.3673 35.1331 25.3673H31.6721C31.0481 25.3673 30.5417 25.8768 30.5417 26.5068V28.7856H28.4213V26.5068C28.4213 25.8768 27.9149 25.3673 27.2909 25.3673H23.8299C23.206 25.3673 22.6996 25.8768 22.6996 26.5068V28.7856H20.439V24.2301H38.524V28.7856ZM34.0028 27.6462V32.2017H32.8024V27.6462H34.0028ZM26.1606 27.6462V32.2017H24.9602V27.6462H26.1606ZM20.439 31.0622H22.6996V33.3411C22.6996 33.9711 23.206 34.4806 23.8299 34.4806H27.2909C27.9149 34.4806 28.4213 33.9711 28.4213 33.3411V31.0622H30.5417V33.3411C30.5417 33.9711 31.0481 34.4806 31.6721 34.4806H35.1331C35.757 34.4806 36.2634 33.9711 36.2634 33.3411V31.0645H38.524V35.62H20.439V31.0622ZM2.3539 29.9251C2.3539 29.2974 2.86028 28.7856 3.48421 28.7856H18.1783V31.0645H3.48421C2.86028 31.0622 2.3539 30.5528 2.3539 29.9251ZM42.869 56.8532C42.1207 58.9615 40.2783 59.6188 38.8292 59.5346C37.3689 59.4482 35.6327 58.5794 35.1376 56.4006L31.5771 40.7486C31.3465 39.7411 30.5056 39.0656 29.4815 39.0656C28.4552 39.0656 27.6142 39.7434 27.3859 40.7509L23.8254 56.3938C23.3258 58.5862 21.5896 59.4573 20.1315 59.5437C18.6825 59.6484 16.8446 58.9706 16.094 56.8532L7.76359 33.3411H18.1783V36.7595C18.1783 37.3894 18.6847 37.8989 19.3086 37.8989H39.6544C40.2783 37.8989 40.7847 37.3894 40.7847 36.7595V33.3411H51.1994L42.869 56.8532ZM55.4788 31.0622H40.7847V28.7834H55.4788C56.1027 28.7834 56.6091 29.2951 56.6091 29.9228C56.6091 30.5528 56.1027 31.0622 55.4788 31.0622Z" fill="#F5F5F5"/>
</g>
<defs>
<clipPath id="clip0_301_763">
<rect width="60" height="61" fill="white" transform="translate(0.00292969 0.496094)"/>
</clipPath>
</defs>
</svg>
