<svg width="54" height="61" viewBox="0 0 54 61" fill="none" xmlns="http://www.w3.org/2000/svg">
<g clip-path="url(#clip0_301_799)">
<path d="M35.1021 0.687187C31.9842 0.641762 28.8999 1.32403 26.1021 2.67801C23.3042 1.32403 20.2199 0.641762 17.1021 0.687187C6.77505 0.687187 0.102051 6.86423 0.102051 16.4249C0.178252 22.5061 2.4705 28.3584 6.56205 32.918L10.4561 55.119C10.6858 56.428 11.3874 57.6117 12.4325 58.4532C13.4775 59.2946 14.7958 59.7374 16.1458 59.7004C17.4958 59.6633 18.787 59.1489 19.7827 58.2515C20.7784 57.354 21.4119 56.1337 21.5671 54.8141L23.7521 36.1954C23.8194 35.6288 24.0959 35.1063 24.5292 34.7271C24.9624 34.3479 25.5221 34.1384 26.1021 34.1384C26.682 34.1384 27.2417 34.3479 27.6749 34.7271C28.1082 35.1063 28.3847 35.6288 28.452 36.1954L30.6371 54.819C30.7922 56.1386 31.4257 57.3589 32.4214 58.2564C33.4171 59.1538 34.7083 59.6682 36.0583 59.7053C37.4083 59.7423 38.7266 59.2996 39.7716 58.4581C40.8167 57.6167 41.5183 56.4329 41.7481 55.1239L45.6421 32.918C49.7336 28.3584 52.0258 22.5061 52.1021 16.4249C52.1021 6.86423 45.4291 0.687187 35.1021 0.687187ZM25.614 4.65211C25.7632 4.73412 25.9312 4.77718 26.1021 4.77718C26.2729 4.77718 26.4409 4.73412 26.59 4.65211C29.2093 3.28714 32.1384 2.5997 35.1021 2.6544C35.4341 2.6544 35.7671 2.67014 36.1021 2.68588C36.1021 5.29456 35.0485 7.7964 33.1731 9.64102C31.2978 11.4856 28.7542 12.5219 26.1021 12.5219C23.4499 12.5219 20.9063 11.4856 19.031 9.64102C17.1556 7.7964 16.1021 5.29456 16.1021 2.68588C16.4351 2.67014 16.7681 2.6544 17.1021 2.6544C20.0657 2.5997 22.9948 3.28714 25.614 4.65211ZM43.9771 31.7908C43.8433 31.9311 43.7543 32.1068 43.7211 32.2964L39.7771 54.7855C39.6288 55.628 39.177 56.3898 38.5042 56.9312C37.8314 57.4726 36.9829 57.7575 36.114 57.7336C35.245 57.7097 34.414 57.3786 33.773 56.8011C33.1321 56.2235 32.7242 55.4381 32.6241 54.5888L30.4391 35.9642C30.3158 34.9178 29.8059 33.9525 29.0062 33.2518C28.2066 32.5511 27.173 32.164 26.1021 32.164C25.0311 32.164 23.9975 32.5511 23.1979 33.2518C22.3982 33.9525 21.8883 34.9178 21.7651 35.9642L19.5811 54.5888C19.4817 55.4388 19.0741 56.2251 18.433 56.8033C17.7918 57.3816 16.9603 57.7131 16.0907 57.737C15.2212 57.7609 14.3721 57.4756 13.6991 56.9335C13.0262 56.3914 12.5745 55.6288 12.4271 54.7855L8.48305 32.2964C8.4498 32.1068 8.3608 31.9311 8.22705 31.7908C4.3486 27.5749 2.1703 22.1102 2.10205 16.4249C2.10205 7.66391 7.87205 3.7767 14.1131 2.87374C14.1704 5.964 15.4588 8.90861 17.7009 11.0741C19.943 13.2395 22.9598 14.4528 26.1021 14.4528C29.2443 14.4528 32.2611 13.2395 34.5032 11.0741C36.7453 8.90861 38.0337 5.964 38.091 2.87374C44.3321 3.7767 50.1021 7.66391 50.1021 16.4249C50.0338 22.1102 47.8555 27.5749 43.9771 31.7908Z" fill="#C7D5E0"/>
</g>
<defs>
<clipPath id="clip0_301_799">
<rect width="53" height="60" fill="white" transform="translate(0.100586 0.496094)"/>
</clipPath>
</defs>
</svg>
