<svg width="37" height="54" viewBox="0 0 37 54" fill="none" xmlns="http://www.w3.org/2000/svg">
<path fill-rule="evenodd" clip-rule="evenodd" d="M32.1261 21.304H4.34638C3.9333 21.304 3.62349 20.9948 3.62349 20.5826C3.62349 20.2734 3.52022 19.9643 3.31368 19.552C3.00387 19.0368 2.79733 18.5215 2.48752 18.0062C1.14501 15.6359 0.112305 13.9871 0.112305 9.76179C0.112305 5.53652 1.8679 2.85708 5.37908 1.2082C8.27065 -0.234574 10.9557 0.795979 13.4342 1.82653C14.3636 2.1357 15.1897 2.44486 16.0159 2.65097C19.0107 3.26931 20.8696 2.65097 22.935 1.82653C23.8644 1.41431 24.8971 1.10514 26.1364 0.795979C29.441 0.074592 32.3326 0.899034 34.1915 3.16625C35.4307 4.71208 36.2569 6.77318 36.3601 9.14346C36.5667 11.4107 36.1536 13.884 35.2242 16.1512C34.398 18.0062 33.7784 18.8307 33.3653 19.449C33.0555 19.9643 32.9522 20.1704 32.8489 20.5826C32.8489 20.9948 32.5391 21.304 32.1261 21.304ZM4.966 19.8612H31.5064C31.713 19.3459 31.9195 19.0368 32.2293 18.6245C32.5391 18.1093 33.1588 17.2848 33.8816 15.5329C35.6372 11.4107 35.3274 6.77318 33.0555 4.09375C31.5064 2.23875 29.2345 1.62042 26.4462 2.23875C25.3102 2.44486 24.3808 2.85708 23.4514 3.16625C21.2827 3.99069 19.2173 4.81513 15.7061 4.09375C14.7767 3.88764 13.8472 3.47542 12.9178 3.16625C10.6459 2.23875 8.27065 1.31126 6.10197 2.44486C6.10197 2.44486 6.10197 2.44486 5.9987 2.44486C2.9006 3.88764 1.55809 6.0518 1.55809 9.76179C1.55809 13.5748 2.48752 15.0176 3.72676 17.2848C4.03657 17.8001 4.24311 18.3154 4.55292 18.9337H4.65619C4.75946 19.2429 4.86273 19.552 4.966 19.8612Z" fill="#F5F5F5"/>
<path fill-rule="evenodd" clip-rule="evenodd" d="M28.5114 18.6245C28.4081 18.6245 28.3049 18.6245 28.2016 18.5214C27.8918 18.4184 27.6852 18.0062 27.8918 17.5939C28.2016 16.8725 28.6147 16.3573 28.9245 15.7389C29.3376 15.2237 29.7506 14.6053 30.0605 13.8839C30.8866 11.7198 31.2997 8.00979 29.6474 6.56702C29.131 6.1548 28.4081 6.1548 27.2722 6.36091C27.2722 6.36091 27.2722 6.36091 27.1689 6.36091C26.2395 6.46396 25.4133 6.87618 24.3806 7.28841C24.0708 7.39146 23.761 7.49452 23.4512 7.70063C20.3531 8.73118 17.7713 8.83423 14.7765 8.11285C13.6405 7.80368 12.5045 7.39146 11.3686 6.97924C11.0588 6.87618 10.6457 6.77313 10.3359 6.67007L10.2326 6.56702C9.71624 6.36091 8.477 5.94869 7.96065 6.1548C6.30832 7.0823 5.79197 7.80368 5.79197 9.76173C5.79197 12.5442 6.30832 13.3687 7.34103 15.2237C7.65084 15.7389 7.96065 16.2542 8.37373 16.9756C8.477 17.2848 8.37373 17.697 8.06392 17.9031C7.65084 18.1092 7.23776 18.0062 7.03122 17.5939C6.7214 16.9756 6.41159 16.4603 6.10178 15.945C5.06908 14.0901 4.34619 12.8534 4.34619 9.76173C4.34619 7.28841 5.06908 6.05174 7.23776 4.91813C8.37373 4.2998 9.81951 4.91813 10.7489 5.2273H10.8522C11.162 5.43341 11.5751 5.53647 11.8849 5.63952C13.0209 6.05174 14.0536 6.46396 15.0863 6.67007C17.7713 7.28841 20.1465 7.18535 22.9348 6.25785C23.2446 6.1548 23.5544 6.05174 23.8643 5.94869C24.897 5.53647 25.9297 5.12425 26.9624 4.91813C28.0983 4.71202 29.5441 4.60897 30.5768 5.53647C32.952 7.49452 32.3324 11.9259 31.403 14.3992C31.403 14.5023 31.403 14.5023 31.403 14.5023C30.9899 15.3267 30.5768 15.945 30.1637 16.5634C29.8539 17.0787 29.4408 17.5939 29.2343 18.2123C29.131 18.4184 28.8212 18.6245 28.5114 18.6245Z" fill="#F5F5F5"/>
<path fill-rule="evenodd" clip-rule="evenodd" d="M24.0711 28.8269H12.4016C12.195 28.8269 11.9885 28.7238 11.8852 28.6208L9.81982 26.2505C9.71655 26.0444 9.61328 25.9413 9.61328 25.7352V20.5825C9.61328 20.1702 9.92309 19.8611 10.3362 19.8611H26.2398C26.6529 19.8611 26.9627 20.1702 26.9627 20.5825V25.7352C26.9627 25.9413 26.9627 26.0444 26.8594 26.2505L24.6907 28.6208C24.4842 28.7238 24.2776 28.8269 24.0711 28.8269ZM12.8147 27.3841H23.7613L25.5169 25.4261V21.3039H11.0591V25.4261L12.8147 27.3841Z" fill="#F5F5F5"/>
<path fill-rule="evenodd" clip-rule="evenodd" d="M17.9782 53.2509C17.7717 53.2509 17.5651 53.1479 17.4619 52.9417L14.3638 48.5104C14.2605 48.4073 14.1572 48.2012 14.1572 48.0981V47.0676C14.1572 46.6554 14.467 46.3462 14.8801 46.3462C15.2932 46.3462 15.603 46.6554 15.603 47.0676V47.892L18.0815 51.2929L20.8698 47.789V45.2126C20.8698 44.8004 21.1796 44.4912 21.5927 44.4912C22.0058 44.4912 22.3156 44.8004 22.3156 45.2126V48.0981C22.3156 48.3043 22.3156 48.4073 22.2123 48.5104L18.5978 52.9417C18.3913 53.1479 18.1848 53.2509 17.9782 53.2509ZM14.8801 45.5218C14.467 45.5218 14.1572 45.2126 14.1572 44.8004V43.1515C14.1572 42.7393 14.467 42.4301 14.8801 42.4301C15.2932 42.4301 15.603 42.7393 15.603 43.1515V44.8004C15.603 45.2126 15.2932 45.5218 14.8801 45.5218ZM21.5927 43.6668C21.1796 43.6668 20.8698 43.3576 20.8698 42.9454V41.2965C20.8698 40.8843 21.1796 40.5751 21.5927 40.5751C22.0058 40.5751 22.3156 40.8843 22.3156 41.2965V42.9454C22.3156 43.3576 22.0058 43.6668 21.5927 43.6668ZM14.8801 41.6057C14.467 41.6057 14.1572 41.2965 14.1572 40.8843V39.1323C14.1572 38.7201 14.467 38.4109 14.8801 38.4109C15.2932 38.4109 15.603 38.7201 15.603 39.1323V40.8843C15.603 41.2965 15.2932 41.6057 14.8801 41.6057ZM21.5927 39.7507C21.1796 39.7507 20.8698 39.4415 20.8698 39.0293V37.3804C20.8698 36.9682 21.1796 36.659 21.5927 36.659C22.0058 36.659 22.3156 36.9682 22.3156 37.3804V39.0293C22.3156 39.4415 22.0058 39.7507 21.5927 39.7507ZM14.8801 37.6896C14.467 37.6896 14.1572 37.3804 14.1572 36.9682V35.2162C14.1572 34.804 14.467 34.4948 14.8801 34.4948C15.2932 34.4948 15.603 34.804 15.603 35.2162V36.9682C15.603 37.3804 15.2932 37.6896 14.8801 37.6896ZM21.5927 35.8346C21.1796 35.8346 20.8698 35.5254 20.8698 35.1132V33.4643C20.8698 33.0521 21.1796 32.7429 21.5927 32.7429C22.0058 32.7429 22.3156 33.0521 22.3156 33.4643V35.1132C22.3156 35.5254 22.0058 35.8346 21.5927 35.8346ZM14.8801 33.6704C14.467 33.6704 14.1572 33.3612 14.1572 32.949V28.1054C14.1572 27.6932 14.467 27.384 14.8801 27.384H21.5927C22.0058 27.384 22.3156 27.6932 22.3156 28.1054V31.1971C22.3156 31.6093 22.0058 31.9185 21.5927 31.9185C21.1796 31.9185 20.8698 31.6093 20.8698 31.1971V28.8268H15.603V32.949C15.603 33.3612 15.2932 33.6704 14.8801 33.6704Z" fill="#F5F5F5"/>
<path fill-rule="evenodd" clip-rule="evenodd" d="M13.1243 36.35C12.4014 36.35 11.7818 35.9378 11.472 35.1133C11.2654 34.5981 11.3687 34.0828 11.5752 33.6706C11.885 33.2583 12.1948 32.9492 12.7112 32.8461L22.9349 30.0636C23.4513 29.9606 23.8644 30.0636 24.2775 30.2697C24.6905 30.5789 25.0003 30.8881 25.1036 31.4033C25.2069 31.8156 25.2069 32.2278 25.0003 32.64C24.7938 33.0522 24.3807 33.4644 23.8644 33.5675L13.6406 36.35C13.5374 36.35 13.3308 36.35 13.1243 36.35ZM12.8145 34.5981C12.8145 34.7011 13.021 35.0103 13.2275 34.9072C13.2275 34.9072 13.2275 34.9072 13.3308 34.9072L23.5546 32.1247C23.6578 32.1247 23.6578 32.0217 23.7611 32.0217C23.7611 31.9186 23.7611 31.9186 23.7611 31.9186C23.7611 31.8156 23.7611 31.8156 23.7611 31.7125C23.6578 31.7125 23.6578 31.6095 23.5546 31.6095C23.4513 31.5064 23.348 31.5064 23.2448 31.5064L13.021 34.2889C12.9177 34.2889 12.9177 34.2889 12.8145 34.3919C12.8145 34.495 12.8145 34.495 12.8145 34.5981Z" fill="#F5F5F5"/>
<path fill-rule="evenodd" clip-rule="evenodd" d="M13.1243 40.266C12.4014 40.266 11.7818 39.8538 11.472 39.1324C11.472 39.0293 11.472 39.0293 11.472 39.0293C11.2654 38.5141 11.3687 37.9988 11.5752 37.5866C11.885 37.1744 12.1948 36.8652 12.7112 36.7621L22.9349 33.9796C23.4513 33.8766 23.8644 33.9796 24.2775 34.1857C24.6905 34.4949 25.0003 34.8041 25.1036 35.3194C25.4134 36.2469 24.7938 37.1744 23.9676 37.4835C23.9676 37.5866 23.8644 37.5866 23.8644 37.5866L13.6406 40.266C13.5374 40.266 13.3308 40.266 13.1243 40.266ZM12.8145 38.5141C12.8145 38.6171 13.021 38.9263 13.2275 38.8232C13.2275 38.8232 13.2275 38.8232 13.3308 38.8232L23.4513 36.1438C23.6578 36.0407 23.7611 35.8346 23.7611 35.7316C23.7611 35.7316 23.7611 35.6285 23.6578 35.6285C23.6578 35.6285 23.6578 35.5255 23.5546 35.4224C23.4513 35.4224 23.348 35.4224 23.2448 35.4224L13.021 38.2049C12.9177 38.2049 12.9177 38.2049 12.8145 38.308C12.8145 38.411 12.8145 38.411 12.8145 38.5141Z" fill="#F5F5F5"/>
<path fill-rule="evenodd" clip-rule="evenodd" d="M13.1245 44.2853C12.2984 44.2853 11.6787 43.77 11.4722 42.9456C11.1624 42.0181 11.5755 41.0906 12.6082 40.6784L22.8319 37.8959C22.9352 37.8959 22.9352 37.8959 22.9352 37.8959C23.4515 37.7928 23.8646 37.8959 24.2777 38.102C24.6908 38.3081 25.0006 38.7203 25.1039 39.2356C25.4137 40.1631 24.8973 41.0906 23.9679 41.3998C23.9679 41.3998 23.8646 41.3998 23.8646 41.5028L13.6409 44.1823C13.4343 44.1823 13.3311 44.2853 13.1245 44.2853ZM13.1245 42.1212C13.0213 42.1212 12.7114 42.2242 12.8147 42.5334C12.918 42.8426 13.1245 42.8426 13.2278 42.7395L23.4515 40.0601C23.5548 40.0601 23.7614 39.8539 23.7614 39.6478C23.6581 39.6478 23.6581 39.5448 23.6581 39.5448C23.6581 39.5448 23.6581 39.4417 23.5548 39.3387C23.4515 39.3387 23.3483 39.3387 23.245 39.3387L13.1245 42.1212Z" fill="#F5F5F5"/>
<path fill-rule="evenodd" clip-rule="evenodd" d="M13.2274 48.2013C12.4013 48.2013 11.6784 47.686 11.4718 46.8616C11.0588 45.9341 11.7817 45.0066 12.6078 44.5943C12.6078 44.5943 12.6078 44.5943 12.7111 44.5943L22.8316 41.9149C23.3479 41.8119 23.8643 41.8119 24.2773 42.121C24.6904 42.3271 25.0002 42.7393 25.1035 43.1516C25.31 43.6668 25.2068 44.1821 25.0002 44.5943C24.6904 45.0066 24.2773 45.3157 23.8643 45.4188L13.6405 48.2013C13.434 48.2013 13.3307 48.2013 13.2274 48.2013ZM13.1242 45.9341C12.9176 46.0371 12.8144 46.3463 12.8144 46.3463V46.4493C12.9176 46.6554 13.0209 46.7585 13.3307 46.7585L23.4512 43.976C23.5545 43.976 23.5545 43.976 23.5545 43.976C23.5545 43.976 23.6577 43.976 23.6577 43.873C23.761 43.7699 23.761 43.6668 23.761 43.5638L23.6577 43.4607C23.6577 43.4607 23.6577 43.3577 23.5545 43.3577C23.5545 43.3577 23.4512 43.2546 23.2446 43.3577L13.1242 45.9341Z" fill="#F5F5F5"/>
</svg>
