<svg width="61" height="62" viewBox="0 0 61 62" fill="none" xmlns="http://www.w3.org/2000/svg">
<g clip-path="url(#clip0_300_1012)">
<path d="M59.6641 31.5297L54.6021 30.0827C54.1047 29.9358 53.6543 29.6618 53.2951 29.2877C54.1782 27.0265 54.5347 24.5939 54.3374 22.1745C54.1402 19.755 53.3945 17.4123 52.1568 15.324C50.9191 13.2358 49.222 11.4569 47.1943 10.1223C45.1666 8.78772 42.8616 7.93255 40.4541 7.62168C38.1304 7.3184 35.7684 7.53251 33.5371 8.24868C31.4877 8.90083 29.2864 8.90083 27.2371 8.24868C25.0154 7.53584 22.6641 7.32109 20.3501 7.61968C18.5613 7.84898 16.8255 8.38518 15.2191 9.20468C14.9597 8.92888 14.756 8.60565 14.6191 8.25268L12.3261 2.13968C12.2549 1.94864 12.1269 1.78393 11.9595 1.66763C11.792 1.55134 11.593 1.48901 11.3891 1.48901C11.1852 1.48901 10.9862 1.55134 10.8187 1.66763C10.6512 1.78393 10.5233 1.94864 10.4521 2.13968L8.16008 8.25168C7.99484 8.69032 7.72941 9.08429 7.38496 9.40219C7.0405 9.72008 6.62654 9.9531 6.17608 10.0827L1.11408 11.5297C0.905554 11.5897 0.722207 11.7159 0.591704 11.8892C0.461202 12.0626 0.390625 12.2737 0.390625 12.4907C0.390625 12.7077 0.461202 12.9188 0.591704 13.0921C0.722207 13.2655 0.905554 13.3917 1.11408 13.4517L6.17608 14.8987C6.57577 15.0169 6.94644 15.2172 7.26445 15.4866C7.58245 15.7561 7.84082 16.0888 8.02308 16.4637C7.1988 18.125 6.67634 19.9196 6.48008 21.7637C6.04304 25.8019 7.16045 29.8549 9.60508 33.0987C11.461 35.6389 12.6776 38.5887 13.1521 41.6987L15.7271 56.7207C15.9566 58.0561 16.6507 59.2674 17.6867 60.1406C18.7228 61.0138 20.0341 61.4927 21.3891 61.4927C22.744 61.4927 24.0554 61.0138 25.0914 60.1406C26.1275 59.2674 26.8216 58.0561 27.0511 56.7207L29.5381 42.2117C29.5732 42.0117 29.6776 41.8306 29.8331 41.7C29.9886 41.5695 30.1851 41.4979 30.3881 41.4979C30.5911 41.4979 30.7876 41.5695 30.943 41.7C31.0985 41.8306 31.203 42.0117 31.2381 42.2117L33.7251 56.7207C33.9552 58.0554 34.6494 59.266 35.6853 60.1386C36.7212 61.0112 38.0321 61.4898 39.3866 61.4898C40.741 61.4898 42.0519 61.0112 43.0878 60.1386C44.1237 59.266 44.818 58.0554 45.0481 56.7207L47.6271 41.6907C47.6661 41.4617 47.7221 41.2417 47.7681 41.0157L48.4521 42.8417C48.5233 43.0327 48.6512 43.1974 48.8187 43.3137C48.9862 43.43 49.1852 43.4924 49.3891 43.4924C49.593 43.4924 49.792 43.43 49.9595 43.3137C50.1269 43.1974 50.2549 43.0327 50.3261 42.8417L52.6181 36.7297C52.7833 36.291 53.0487 35.8971 53.3932 35.5792C53.7377 35.2613 54.1516 35.0283 54.6021 34.8987L59.6641 33.4517C59.8726 33.3917 60.0559 33.2655 60.1864 33.0921C60.3169 32.9188 60.3875 32.7077 60.3875 32.4907C60.3875 32.2737 60.3169 32.0626 60.1864 31.8892C60.0559 31.7159 59.8726 31.5897 59.6641 31.5297ZM6.72508 12.9757L5.02908 12.4907L6.72908 12.0057C7.48014 11.7896 8.17038 11.4012 8.74485 10.8714C9.31933 10.3415 9.76215 9.68487 10.0381 8.95368L11.3891 5.33868L12.7441 8.95368C13.02 9.68487 13.4628 10.3415 14.0373 10.8714C14.6118 11.4012 15.302 11.7896 16.0531 12.0057L17.7531 12.4907L16.0531 12.9757C15.302 13.1917 14.6118 13.5801 14.0373 14.11C13.4628 14.6398 13.02 15.2965 12.7441 16.0277L11.3891 19.6427L10.0341 16.0277C9.75815 15.2965 9.31532 14.6398 8.74085 14.11C8.16638 13.5801 7.47614 13.1917 6.72508 12.9757ZM46.5451 37.7637C46.1593 38.9361 45.8618 40.1358 45.6551 41.3527L43.0781 56.3847C42.928 57.2544 42.4755 58.0432 41.8005 58.6118C41.1254 59.1804 40.2712 59.4922 39.3886 59.4922C38.506 59.4922 37.6517 59.1804 36.9767 58.6118C36.3016 58.0432 35.8491 57.2544 35.6991 56.3847L33.2121 41.8707C33.0981 41.2045 32.7523 40.6001 32.2356 40.1643C31.719 39.7286 31.0649 39.4896 30.3891 39.4896C29.7132 39.4896 29.0591 39.7286 28.5425 40.1643C28.0259 40.6001 27.68 41.2045 27.5661 41.8707L25.0791 56.3797C24.9296 57.2501 24.4773 58.0396 23.8021 58.6088C23.1269 59.1779 22.2722 59.4901 21.3891 59.4901C20.506 59.4901 19.6513 59.1779 18.9761 58.6088C18.3008 58.0396 17.8485 57.2501 17.6991 56.3797L15.1241 41.3577C14.5956 37.9343 13.25 34.6887 11.2011 31.8957C9.06275 29.0556 8.08592 25.508 8.46908 21.9737C8.57254 21.0215 8.77668 20.0829 9.07808 19.1737L10.4521 22.8397C10.5233 23.0307 10.6512 23.1954 10.8187 23.3117C10.9862 23.428 11.1852 23.4904 11.3891 23.4904C11.593 23.4904 11.792 23.428 11.9595 23.3117C12.1269 23.1954 12.2549 23.0307 12.3261 22.8397L14.6181 16.7277C14.7833 16.289 15.0487 15.8951 15.3932 15.5772C15.7377 15.2593 16.1516 15.0263 16.6021 14.8967L21.6641 13.4497C21.8726 13.3897 22.0559 13.2635 22.1864 13.0901C22.317 12.9168 22.3875 12.7057 22.3875 12.4887C22.3875 12.2717 22.317 12.0606 22.1864 11.8872C22.0559 11.7139 21.8726 11.5877 21.6641 11.5277L17.5641 10.3567C18.5431 9.98926 19.5611 9.73559 20.5981 9.60068C22.6231 9.33962 24.6808 9.52739 26.6251 10.1507C29.0712 10.9277 31.698 10.9277 34.1441 10.1507C36.0973 9.52524 38.1645 9.3388 40.1981 9.60468C43.2655 10.0195 46.1111 11.4326 48.2953 13.6259C50.4795 15.8192 51.8809 18.6706 52.2831 21.7397C52.4806 23.3813 52.3913 25.0447 52.0191 26.6557L50.3261 22.1397C50.2549 21.9486 50.1269 21.7839 49.9595 21.6676C49.792 21.5513 49.593 21.489 49.3891 21.489C49.1852 21.489 48.9862 21.5513 48.8187 21.6676C48.6512 21.7839 48.5233 21.9486 48.4521 22.1397L46.1601 28.2517C45.9948 28.6903 45.7294 29.0843 45.385 29.4022C45.0405 29.7201 44.6265 29.9531 44.1761 30.0827L39.1141 31.5297C38.9056 31.5897 38.7222 31.7159 38.5917 31.8892C38.4612 32.0626 38.3906 32.2737 38.3906 32.4907C38.3906 32.7077 38.4612 32.9188 38.5917 33.0921C38.7222 33.2655 38.9056 33.3917 39.1141 33.4517L44.1761 34.8987C44.6265 35.0283 45.0405 35.2613 45.385 35.5792C45.7294 35.8971 45.9948 36.291 46.1601 36.7297L46.5491 37.7647L46.5451 37.7637ZM54.0531 32.9757C53.302 33.1917 52.6118 33.5801 52.0373 34.11C51.4628 34.6398 51.02 35.2965 50.7441 36.0277L49.3891 39.6427L48.0341 36.0277C47.7582 35.2965 47.3153 34.6398 46.7409 34.11C46.1664 33.5801 45.4761 33.1917 44.7251 32.9757L43.0291 32.4907L44.7291 32.0057C45.4801 31.7896 46.1704 31.4012 46.7449 30.8714C47.3193 30.3415 47.7621 29.6849 48.0381 28.9537L49.3891 25.3387L50.7441 28.9537C51.02 29.6849 51.4628 30.3415 52.0373 30.8714C52.6118 31.4012 53.302 31.7896 54.0531 32.0057L55.7531 32.4907L54.0531 32.9757Z" fill="#C7D5E0"/>
</g>
<defs>
<clipPath id="clip0_300_1012">
<rect width="60" height="61" fill="white" transform="translate(0.387695 0.496094)"/>
</clipPath>
</defs>
</svg>
