<svg width="57" height="54" viewBox="0 0 57 54" fill="none" xmlns="http://www.w3.org/2000/svg">
<g clip-path="url(#clip0_300_767)">
<path d="M5.86164 0.350586C2.85904 0.350586 0.419434 2.80907 0.419434 5.8349V35.8663C0.419434 38.8921 2.85904 41.3506 5.86164 41.3506H50.6378C53.6404 41.3506 56.08 38.8921 56.08 35.8663V5.8349C56.1176 2.80907 53.6404 0.350586 50.6378 0.350586H5.86164ZM5.86164 2.3552H50.6378C52.552 2.3552 54.0908 3.86811 54.0908 5.8349V9.27678H2.40865V5.8349C2.40865 3.90594 3.94748 2.3552 5.86164 2.3552ZM2.40865 11.2814H54.1283V15.1393H2.40865V11.2814ZM2.40865 17.1439H54.1283V35.8663C54.1283 37.7952 52.5895 39.346 50.6754 39.346H5.86164C3.94748 39.346 2.40865 37.8331 2.40865 35.8663V17.1439ZM36.4881 23.3469C34.9868 23.3469 33.5606 23.9521 32.4721 25.0111C31.4212 26.0701 30.8207 27.5452 30.8207 29.0582C30.8207 30.5711 31.4212 32.0083 32.4721 33.1052C33.523 34.1642 34.9868 34.7694 36.4881 34.7694C37.6891 34.7694 38.8526 34.3912 39.8285 33.6725C40.8043 34.3912 41.9678 34.7694 43.1689 34.7694C44.6702 34.7694 46.0964 34.1642 47.1848 33.1052C48.2357 32.0462 48.8363 30.5711 48.8363 29.0582C48.8363 27.5452 48.2357 26.108 47.1848 25.0111C46.1339 23.9521 44.6702 23.3469 43.1689 23.3469C41.9678 23.3469 40.8043 23.7251 39.8285 24.4438C38.8526 23.7251 37.6891 23.3469 36.4881 23.3469ZM8.7141 24.8598C8.15111 24.8598 7.70072 25.2759 7.70072 25.8432C7.70072 26.4105 8.11358 26.8644 8.67657 26.8644C8.67657 26.8644 8.67657 26.8644 8.7141 26.8644H21.2124C21.7754 26.8644 22.2258 26.4484 22.2258 25.881C22.2258 25.3137 21.8129 24.8598 21.2499 24.8598C21.2499 24.8598 21.2499 24.8598 21.2124 24.8598H8.7141ZM36.4881 25.3515C37.1637 25.3515 37.8393 25.5406 38.4398 25.9189C38.2897 26.1458 38.1771 26.3727 38.0645 26.5997C38.0645 26.5997 38.0645 26.6375 38.0269 26.6753C37.8017 27.1292 37.6516 27.6587 37.5765 28.1504C37.5765 28.1882 37.5765 28.226 37.5765 28.2639C37.5765 28.5286 37.5015 28.7934 37.5015 29.0582C37.5015 29.3229 37.5015 29.5877 37.5765 29.8524C37.5765 29.8903 37.5765 29.9281 37.5765 29.9659C37.6516 30.4954 37.8017 30.9871 38.0269 31.441C38.0269 31.441 38.0269 31.4788 38.0645 31.5166C38.1771 31.7436 38.2897 31.9705 38.4398 32.1975C37.8768 32.5757 37.2012 32.7648 36.5256 32.7648C35.5498 32.7648 34.6115 32.3866 33.9359 31.6679C33.2603 30.9871 32.8475 30.0415 32.8475 29.0582C32.8475 28.0748 33.2228 27.1292 33.9359 26.4484C34.6115 25.7676 35.5498 25.3515 36.5256 25.3515H36.4881ZM43.1689 25.3515C44.1447 25.3515 45.083 25.7297 45.7586 26.4484C46.4342 27.1292 46.847 28.0748 46.847 29.0582C46.847 30.0415 46.4717 30.9871 45.7586 31.6679C45.083 32.3487 44.1447 32.7648 43.1689 32.7648C42.193 32.7648 41.2547 32.3866 40.5791 31.6679C39.9035 30.9871 39.5282 30.0415 39.5282 29.0582C39.5282 28.0748 39.9035 27.167 40.5791 26.4484C41.2547 25.7676 42.193 25.3893 43.1689 25.3893V25.3515ZM8.63904 30.2685C8.07605 30.3063 7.66319 30.798 7.70072 31.3275C7.70072 31.857 8.18865 32.2731 8.7141 32.2731H14.0437C14.6067 32.2731 15.0571 31.857 15.0571 31.2897C15.0571 30.7224 14.6442 30.2685 14.0812 30.2685C14.0812 30.2685 14.0812 30.2685 14.0437 30.2685H8.7141C8.7141 30.2685 8.63904 30.2685 8.6015 30.2685H8.63904Z" fill="#132035"/>
</g>
<defs>
<clipPath id="clip0_300_767">
<rect width="55.661" height="53" fill="white" transform="translate(0.419434 0.350586)"/>
</clipPath>
</defs>
</svg>
