<svg width="28" height="28" viewBox="0 0 28 28" fill="none" xmlns="http://www.w3.org/2000/svg">
<path fill-rule="evenodd" clip-rule="evenodd" d="M27.881 13.6641C27.881 21.0624 21.8359 27.0621 14.3797 27.0621C12.0111 27.0621 9.78603 26.4574 7.85332 25.394L0.376953 27.7702L2.81364 20.5836C1.58396 18.5652 0.875882 16.1966 0.875882 13.6667C0.875882 6.26589 6.92097 0.268677 14.3772 0.268677C21.8334 0.268677 27.8785 6.26841 27.8785 13.6667L27.881 13.6641ZM14.3797 2.39794C8.1179 2.39794 3.02782 7.45022 3.02782 13.6616C3.02782 16.126 3.82913 18.409 5.18985 20.2661L3.77118 24.4491L8.13302 23.0631C9.92462 24.2399 12.0715 24.9253 14.3797 24.9253C20.639 24.9253 25.7316 19.873 25.7316 13.6616C25.7316 7.45022 20.639 2.39794 14.3797 2.39794ZM21.1984 16.7484C21.1152 16.6124 20.8935 16.5292 20.5634 16.3654C20.2333 16.2016 18.6029 15.4053 18.3006 15.297C17.9982 15.1886 17.7764 15.1332 17.5572 15.4608C17.3355 15.7884 16.703 16.5292 16.509 16.7484C16.3175 16.9676 16.1234 16.9954 15.7933 16.8316C15.4607 16.6678 14.3948 16.32 13.1324 15.2012C12.1496 14.3294 11.4844 13.2559 11.2904 12.9258C11.0989 12.5982 11.2702 12.4193 11.434 12.2556C11.5827 12.1069 11.7666 11.8725 11.9304 11.681C12.0967 11.4895 12.1522 11.3509 12.2605 11.1317C12.3714 10.9125 12.316 10.721 12.2328 10.5572C12.1496 10.3934 11.4894 8.77817 11.2123 8.11798C10.9376 7.46282 10.6629 7.4855 10.4689 7.4855C10.2749 7.4855 9.91959 7.54345 9.91959 7.54345C9.91959 7.54345 9.25687 7.62661 8.95197 7.95419C8.64959 8.28176 7.79284 9.07803 7.79284 10.6933C7.79284 12.3085 8.97716 13.8708 9.14347 14.09C9.30978 14.3092 11.4315 17.7337 14.798 19.049C18.162 20.3644 18.162 19.9259 18.7693 19.8705C19.374 19.8176 20.7272 19.0768 21.0044 18.3107C21.2815 17.5447 21.2815 16.887 21.1984 16.7509V16.7484Z" fill="#132035"/>
</svg>
